<svg data-name="Layer 1" xmlns="http://www.w3.org/2000/svg" width="19.962" height="45.991"><path d="M9 2.225H6.776V0H9zm0 1.113H6.776v2.225H9zm0 13.616H6.776v2.225H9zm0 3.356H6.776v2.226H9zm-3.385-3.356H3.39v2.225h2.225zm-3.39-.008H0v2.226h2.225zm3.39 3.354H3.39v2.225h2.225zM9 26.979H6.776v2.226H9zm0 3.405H6.776v2.225H9zm-3.387-3.42H3.39v2.226h2.225zm-3.39 0H0v2.226h2.225zm3.39 3.405H3.39V32.6h2.225zM9 6.676H6.776V8.9H9zM13.286 20.3H11.06v2.225h2.226zm0 3.338H11.06v2.225h2.226zm0 3.338H11.06v2.226h2.226zm3.338-3.338H14.4v2.225h2.226zm3.338 0h-2.226v2.225h2.226zm0 6.736h-2.226V32.6h2.226zm-3.338-3.4H14.4V29.2h2.226zm-3.338-20.3H11.06V8.9h2.226zm0 6.947H11.06v2.226h2.226zM10.407 3.338h-.8v42.653h.8z" fill="#941515"/></svg>