<?xml version="1.0" encoding="utf-8"?>
<!-- Generator: Adobe Illustrator 23.0.2, SVG Export Plug-In . SVG Version: 6.00 Build 0)  -->
<svg version="1.1" xmlns="http://www.w3.org/2000/svg" xmlns:xlink="http://www.w3.org/1999/xlink" x="0px" y="0px" width="540px"
	 height="500px" viewBox="0 0 540 500" enable-background="new 0 0 540 500" xml:space="preserve">
<g id="Layer_1">
</g>
<g id="Layer_4" display="none">
</g>
<g id="Layer_6">
</g>
<g id="stream">
</g>
<g id="text">
	<polygon fill="#B376B4" points="480.15,493.61 13.86,493.61 13.86,335.69 65.67,288.92 117.48,234.19 169.29,234.19 221.1,367.03 
		272.91,284.58 324.72,126.18 376.53,76.04 428.34,112.2 480.15,57.96 	"/>
	<polygon fill="#6DDA8B" points="480.15,493.61 13.86,493.61 13.86,364.38 65.67,325.32 117.48,264.09 169.29,280.48 221.1,387.28 
		272.91,320.74 324.72,198.75 376.53,156.32 428.34,189.59 480.15,185.01 	"/>
	<polygon fill="#FAB876" points="480.15,493.61 13.86,493.61 13.86,408.02 65.67,383.91 117.48,366.55 169.29,375.71 221.1,433.33 
		272.91,401.03 324.72,308.21 376.53,288.92 428.34,326.05 480.15,296.63 	"/>
	<polygon fill="#AC7879" points="480.15,493.61 13.86,493.61 13.86,468.77 65.67,447.07 117.48,415.97 169.29,405.85 221.1,439.84 
		272.91,411.39 324.72,320.26 376.53,299.29 428.34,339.07 480.15,327.01 	"/>
	<polygon fill="#7FB8DA" points="480.15,493.61 13.86,493.61 13.86,474.32 65.67,471.18 117.48,454.79 169.29,428.99 221.1,460.82 
		272.91,448.76 324.72,396.2 376.53,390.66 428.34,415.25 480.15,426.34 	"/>
	
		<text transform="matrix(0.7071 -0.7071 0.7071 0.7071 13.914 52.8775)" fill="#757575" font-family="'SourceSansPro-Regular'" font-size="12px">1701–1710</text>
	
		<text transform="matrix(0.7071 -0.7071 0.7071 0.7071 65.7254 52.8767)" fill="#757575" font-family="'SourceSansPro-Regular'" font-size="12px">1711–1720</text>
	
		<text transform="matrix(0.7071 -0.7071 0.7071 0.7071 117.5345 52.8762)" fill="#757575" font-family="'SourceSansPro-Regular'" font-size="12px">1721–1730</text>
	
		<text transform="matrix(0.7071 -0.7071 0.7071 0.7071 169.3439 52.8764)" fill="#757575" font-family="'SourceSansPro-Regular'" font-size="12px">1731–1740</text>
	
		<text transform="matrix(0.7071 -0.7071 0.7071 0.7071 221.1542 52.8764)" fill="#757575" font-family="'SourceSansPro-Regular'" font-size="12px">1741–1750</text>
	
		<text transform="matrix(0.7071 -0.7071 0.7071 0.7071 272.964 52.8769)" fill="#757575" font-family="'SourceSansPro-Regular'" font-size="12px">1751–1760</text>
	
		<text transform="matrix(0.7071 -0.7071 0.7071 0.7071 324.7725 52.8754)" fill="#757575" font-family="'SourceSansPro-Regular'" font-size="12px">1761–1770</text>
	
		<text transform="matrix(0.7071 -0.7071 0.7071 0.7071 376.5823 52.8753)" fill="#757575" font-family="'SourceSansPro-Regular'" font-size="12px">1771–1780</text>
	
		<text transform="matrix(0.7071 -0.7071 0.7071 0.7071 428.3928 52.8758)" fill="#757575" font-family="'SourceSansPro-Regular'" font-size="12px">1781–1790</text>
	
		<text transform="matrix(0.7071 -0.7071 0.7071 0.7071 480.2021 52.8763)" fill="#757575" font-family="'SourceSansPro-Regular'" font-size="12px">1791–1800</text>
	<text transform="matrix(1 0 0 1 121.5878 483.9835)" fill="#FFFFFF" font-family="'SourceSansPro-Regular'" font-size="12px">Florence</text>
	<text transform="matrix(1 0 0 1 126.082 431.0734)" fill="#FFFFFF" font-family="'SourceSansPro-Regular'" font-size="12px">Naples</text>
	<text transform="matrix(1 0 0 1 125.8873 336.3699)" fill="#FFFFFF" font-family="'SourceSansPro-Regular'" font-size="12px">Rome</text>
	<text transform="matrix(1 0 0 1 126.8495 263.8001)" fill="#FFFFFF" font-family="'SourceSansPro-Regular'" font-size="12px">Venice</text>
	<text transform="matrix(1 0 0 1 124.3808 392.4898)" fill="#FFFFFF" font-family="'SourceSansPro-Regular'" font-size="12px">Padua</text>
	<line fill="none" stroke="#6D6E71" stroke-width="0.25" stroke-miterlimit="10" x1="13.86" y1="251.71" x2="540" y2="251.71"/>
	<line fill="none" stroke="#6D6E71" stroke-width="0.25" stroke-miterlimit="10" x1="13.86" y1="275.9" x2="540" y2="275.9"/>
	<line fill="none" stroke="#6D6E71" stroke-width="0.25" stroke-miterlimit="10" x1="13.86" y1="300.09" x2="540" y2="300.09"/>
	<line fill="none" stroke="#6D6E71" stroke-width="0.25" stroke-miterlimit="10" x1="13.86" y1="324.28" x2="540" y2="324.28"/>
	<line fill="none" stroke="#6D6E71" stroke-width="0.25" stroke-miterlimit="10" x1="13.86" y1="348.47" x2="540" y2="348.47"/>
	<line fill="none" stroke="#6D6E71" stroke-width="0.25" stroke-miterlimit="10" x1="13.86" y1="372.66" x2="540" y2="372.66"/>
	<line fill="none" stroke="#6D6E71" stroke-width="0.25" stroke-miterlimit="10" x1="13.86" y1="396.85" x2="540" y2="396.85"/>
	<line fill="none" stroke="#6D6E71" stroke-width="0.25" stroke-miterlimit="10" x1="13.86" y1="421.04" x2="540" y2="421.04"/>
	<line fill="none" stroke="#6D6E71" stroke-width="0.25" stroke-miterlimit="10" x1="13.86" y1="445.23" x2="540" y2="445.23"/>
	<line fill="none" stroke="#6D6E71" stroke-width="0.25" stroke-miterlimit="10" x1="540" y1="493.61" x2="13.86" y2="493.61"/>
	<line fill="none" stroke="#6D6E71" stroke-width="0.25" stroke-miterlimit="10" x1="13.86" y1="469.42" x2="540" y2="469.42"/>
	<line fill="none" stroke="#6D6E71" stroke-width="0.25" stroke-miterlimit="10" x1="13.86" y1="58.19" x2="540" y2="58.19"/>
	<line fill="none" stroke="#6D6E71" stroke-width="0.25" stroke-miterlimit="10" x1="13.86" y1="82.38" x2="540" y2="82.38"/>
	<line fill="none" stroke="#6D6E71" stroke-width="0.25" stroke-miterlimit="10" x1="13.86" y1="106.57" x2="540" y2="106.57"/>
	<line fill="none" stroke="#6D6E71" stroke-width="0.25" stroke-miterlimit="10" x1="540" y1="130.76" x2="13.86" y2="130.76"/>
	<line fill="none" stroke="#6D6E71" stroke-width="0.25" stroke-miterlimit="10" x1="13.86" y1="154.95" x2="540" y2="154.95"/>
	<line fill="none" stroke="#6D6E71" stroke-width="0.25" stroke-miterlimit="10" x1="13.86" y1="179.14" x2="540" y2="179.14"/>
	<line fill="none" stroke="#6D6E71" stroke-width="0.25" stroke-miterlimit="10" x1="13.86" y1="203.33" x2="540" y2="203.33"/>
	<line fill="none" stroke="#6D6E71" stroke-width="0.25" stroke-miterlimit="10" x1="13.86" y1="227.52" x2="540" y2="227.52"/>
	<line fill="none" stroke="#6D6E71" stroke-width="0.25" stroke-miterlimit="10" x1="13.86" y1="58.19" x2="13.86" y2="493.61"/>
	<line fill="none" stroke="#6D6E71" stroke-width="0.25" stroke-miterlimit="10" x1="65.67" y1="58.19" x2="65.67" y2="493.61"/>
	<line fill="none" stroke="#6D6E71" stroke-width="0.25" stroke-miterlimit="10" x1="117.48" y1="58.18" x2="117.48" y2="493.61"/>
	<line fill="none" stroke="#6D6E71" stroke-width="0.25" stroke-miterlimit="10" x1="169.29" y1="58.19" x2="169.29" y2="493.61"/>
	<line fill="none" stroke="#6D6E71" stroke-width="0.25" stroke-miterlimit="10" x1="221.1" y1="58.19" x2="221.1" y2="493.61"/>
	<line fill="none" stroke="#6D6E71" stroke-width="0.25" stroke-miterlimit="10" x1="272.91" y1="58.19" x2="272.91" y2="493.61"/>
	<line fill="none" stroke="#6D6E71" stroke-width="0.25" stroke-miterlimit="10" x1="324.72" y1="58.18" x2="324.72" y2="493.61"/>
	<line fill="none" stroke="#6D6E71" stroke-width="0.25" stroke-miterlimit="10" x1="376.53" y1="58.18" x2="376.53" y2="493.61"/>
	<line fill="none" stroke="#6D6E71" stroke-width="0.25" stroke-miterlimit="10" x1="428.34" y1="58.19" x2="428.34" y2="493.61"/>
	<line fill="none" stroke="#6D6E71" stroke-width="0.25" stroke-miterlimit="10" x1="480.15" y1="58.19" x2="480.15" y2="493.61"/>
	<g>
		<text transform="matrix(1 0 0 1 489.7033 478.8499)"><tspan x="0" y="0" fill="#6D6E71" font-family="'SourceSansPro-Regular'" font-size="10px">100</tspan><tspan x="0" y="12" fill="#6D6E71" font-family="'SourceSansPro-Regular'" font-size="10px">travelers</tspan></text>
	</g>
	<g>
		<g>
			
				<line fill="none" stroke="#6D6E71" stroke-width="0.5" stroke-miterlimit="10" x1="484.72" y1="472.43" x2="484.72" y2="490.59"/>
			<g>
				<path fill="#6D6E71" d="M484.72,469.42c-0.53,1.42-1.43,3.18-2.38,4.27l2.38-0.86l2.38,0.86
					C486.15,472.6,485.25,470.84,484.72,469.42z"/>
			</g>
			<g>
				<path fill="#6D6E71" d="M484.72,493.61c-0.53-1.42-1.43-3.18-2.38-4.27l2.38,0.86l2.38-0.86
					C486.15,490.42,485.25,492.19,484.72,493.61z"/>
			</g>
		</g>
	</g>
</g>
<g id="Layer_7" display="none">
	
		<text transform="matrix(1 0 0 1 14.2349 349.901)" display="inline" fill="#464646" font-family="'HelveticaNeue-Medium'" font-size="12px">119</text>
	
		<text transform="matrix(1 0 0 1 14.2349 383.8199)" display="inline" fill="#464646" font-family="'HelveticaNeue-Medium'" font-size="12px">181</text>
	
		<text transform="matrix(1 0 0 1 14.2349 444.6754)" display="inline" fill="#464646" font-family="'HelveticaNeue-Medium'" font-size="12px">252</text>
	
		<text transform="matrix(1 0 0 1 14.2346 472.2759)" display="inline" fill="#464646" font-family="'HelveticaNeue-Medium'" font-size="12px">23</text>
	
		<text transform="matrix(1 0 0 1 14.2349 485.6068)" display="inline" fill="#464646" font-family="'HelveticaNeue-Medium'" font-size="12px">80</text>
	<g display="inline">
		<text transform="matrix(1 0 0 1 58.204 306.1216)" fill="#464646" font-family="'HelveticaNeue-Medium'" font-size="12px">151</text>
	</g>
	<g display="inline">
		<text transform="matrix(1 0 0 1 58.204 354.5561)" fill="#464646" font-family="'HelveticaNeue-Medium'" font-size="12px">243</text>
	</g>
	<g display="inline">
		<text transform="matrix(1 0 0 1 58.204 413.7484)" fill="#464646" font-family="'HelveticaNeue-Medium'" font-size="12px">262</text>
	</g>
	<g display="inline">
		<text transform="matrix(1 0 0 1 58.204 460.4112)" fill="#464646" font-family="'HelveticaNeue-Medium'" font-size="12px">100</text>
	</g>
	<g display="inline">
		<text transform="matrix(1 0 0 1 61.5402 486.0171)" fill="#464646" font-family="'HelveticaNeue-Medium'" font-size="12px">93</text>
	</g>
</g>
<g id="annotation">
</g>
</svg>
