<?xml version="1.0" encoding="utf-8"?>
<!-- Generator: Adobe Illustrator 23.0.2, SVG Export Plug-In . SVG Version: 6.00 Build 0)  -->
<svg version="1.1" xmlns="http://www.w3.org/2000/svg" xmlns:xlink="http://www.w3.org/1999/xlink" x="0px" y="0px" width="540px"
	 height="400px" viewBox="0 0 540 400" enable-background="new 0 0 540 400" xml:space="preserve">
<g id="Layer_4">
	<polygon fill="#FAB876" points="483.33,388.68 17.18,388.68 17.18,235.21 68.98,214.16 120.77,194.21 172.57,162.91 224.36,247.68 
		276.15,190.89 327.95,98.08 379.74,72.88 431.53,82.02 483.33,79.25 	"/>
	<polygon fill="#B376B4" points="483.33,388.68 17.18,388.68 17.18,237.98 68.98,221.36 120.77,207.51 172.57,183.41 224.36,262.36 
		276.15,208.62 327.95,132.99 379.74,126.62 431.53,149.06 483.33,159.58 	"/>
	<polygon fill="#6DDA8B" points="483.33,388.68 17.18,388.68 17.18,266.51 68.98,245.74 120.77,234.38 172.57,221.08 224.36,287.85 
		276.15,244.35 327.95,182.58 379.74,165.96 431.53,179.81 483.33,183.41 	"/>
</g>
<g id="Layer_5">
	<line fill="none" stroke="#6D6E71" stroke-width="0.25" stroke-miterlimit="10" x1="0" y1="333.28" x2="540" y2="333.28"/>
	<line fill="none" stroke="#6D6E71" stroke-width="0.25" stroke-miterlimit="10" x1="0" y1="388.68" x2="540" y2="388.68"/>
	<line fill="none" stroke="#6D6E71" stroke-width="0.25" stroke-miterlimit="10" x1="0" y1="277.87" x2="540" y2="277.87"/>
	<line fill="none" stroke="#6D6E71" stroke-width="0.25" stroke-miterlimit="10" x1="0" y1="222.47" x2="540" y2="222.47"/>
	<line fill="none" stroke="#6D6E71" stroke-width="0.25" stroke-miterlimit="10" x1="0" y1="167.06" x2="540" y2="167.06"/>
	<line fill="none" stroke="#6D6E71" stroke-width="0.25" stroke-miterlimit="10" x1="0" y1="111.66" x2="540" y2="111.66"/>
	<line fill="none" stroke="#6D6E71" stroke-width="0.25" stroke-miterlimit="10" x1="0" y1="56.25" x2="540" y2="56.25"/>
	
		<text transform="matrix(0.7071 -0.7071 0.7071 0.7071 17.04 48.7203)" fill="#757575" font-family="'SourceSansPro-Regular'" font-size="12px">1701–1710</text>
	
		<text transform="matrix(0.7071 -0.7071 0.7071 0.7071 68.8514 48.7195)" fill="#757575" font-family="'SourceSansPro-Regular'" font-size="12px">1711–1720</text>
	
		<text transform="matrix(0.7071 -0.7071 0.7071 0.7071 120.6604 48.719)" fill="#757575" font-family="'SourceSansPro-Regular'" font-size="12px">1721–1730</text>
	
		<text transform="matrix(0.7071 -0.7071 0.7071 0.7071 172.4698 48.7191)" fill="#757575" font-family="'SourceSansPro-Regular'" font-size="12px">1731–1740</text>
	
		<text transform="matrix(0.7071 -0.7071 0.7071 0.7071 224.2801 48.7187)" fill="#757575" font-family="'SourceSansPro-Regular'" font-size="12px">1741–1750</text>
	
		<text transform="matrix(0.7071 -0.7071 0.7071 0.7071 276.0899 48.7192)" fill="#757575" font-family="'SourceSansPro-Regular'" font-size="12px">1751–1760</text>
	
		<text transform="matrix(0.7071 -0.7071 0.7071 0.7071 327.8985 48.7177)" fill="#757575" font-family="'SourceSansPro-Regular'" font-size="12px">1761–1770</text>
	
		<text transform="matrix(0.7071 -0.7071 0.7071 0.7071 379.7083 48.7175)" fill="#757575" font-family="'SourceSansPro-Regular'" font-size="12px">1771–1780</text>
	
		<text transform="matrix(0.7071 -0.7071 0.7071 0.7071 431.5188 48.7176)" fill="#757575" font-family="'SourceSansPro-Regular'" font-size="12px">1781–1790</text>
	
		<text transform="matrix(0.7071 -0.7071 0.7071 0.7071 483.3281 48.7181)" fill="#757575" font-family="'SourceSansPro-Regular'" font-size="12px">1791–1800</text>
	<line fill="none" stroke="#6D6E71" stroke-width="0.25" stroke-miterlimit="10" x1="68.8" y1="56.98" x2="68.8" y2="388.68"/>
	<line fill="none" stroke="#6D6E71" stroke-width="0.25" stroke-miterlimit="10" x1="17.04" y1="56.98" x2="17.04" y2="388.68"/>
	<line fill="none" stroke="#6D6E71" stroke-width="0.25" stroke-miterlimit="10" x1="120.61" y1="56.98" x2="120.61" y2="388.68"/>
	<line fill="none" stroke="#6D6E71" stroke-width="0.25" stroke-miterlimit="10" x1="172.42" y1="56.98" x2="172.42" y2="388.68"/>
	<line fill="none" stroke="#6D6E71" stroke-width="0.25" stroke-miterlimit="10" x1="224.23" y1="56.98" x2="224.23" y2="388.68"/>
	<line fill="none" stroke="#6D6E71" stroke-width="0.25" stroke-miterlimit="10" x1="276.04" y1="56.98" x2="276.04" y2="388.68"/>
	<line fill="none" stroke="#6D6E71" stroke-width="0.25" stroke-miterlimit="10" x1="327.84" y1="56.98" x2="327.84" y2="388.68"/>
	<line fill="none" stroke="#6D6E71" stroke-width="0.25" stroke-miterlimit="10" x1="379.65" y1="56.98" x2="379.65" y2="388.68"/>
	<line fill="none" stroke="#6D6E71" stroke-width="0.25" stroke-miterlimit="10" x1="431.46" y1="56.98" x2="431.46" y2="388.68"/>
	<line fill="none" stroke="#6D6E71" stroke-width="0.25" stroke-miterlimit="10" x1="483.33" y1="56.98" x2="483.33" y2="388.68"/>
	<g>
		<text transform="matrix(1 0 0 1 491.5364 358.0226)"><tspan x="0" y="0" fill="#6D6E71" font-family="'SourceSansPro-Regular'" font-size="10px">200</tspan><tspan x="0" y="12" fill="#6D6E71" font-family="'SourceSansPro-Regular'" font-size="10px">travelers</tspan></text>
	</g>
	<g>
		<g>
			
				<line fill="none" stroke="#6D6E71" stroke-width="0.5" stroke-miterlimit="10" x1="488.66" y1="385.75" x2="488.66" y2="336.29"/>
			<g>
				<path fill="#6D6E71" d="M488.66,388.77c0.53-1.42,1.43-3.18,2.38-4.27l-2.38,0.86l-2.38-0.86
					C487.23,385.59,488.13,387.35,488.66,388.77z"/>
			</g>
			<g>
				<path fill="#6D6E71" d="M488.66,333.28c0.53,1.42,1.43,3.18,2.38,4.27l-2.38-0.86l-2.38,0.86
					C487.23,336.46,488.13,334.7,488.66,333.28z"/>
			</g>
		</g>
	</g>
	<text transform="matrix(1 0 0 1 334.7896 107.7828)" fill="#FFFFFF" font-family="'SourceSansPro-Regular'" font-size="12px">Women</text>
	<text transform="matrix(1 0 0 1 326.4795 157.6465)" fill="#FFFFFF" font-family="'SourceSansPro-Regular'" font-size="12px">Young Men</text>
	<text transform="matrix(1 0 0 1 343.3687 207.5108)" fill="#FFFFFF" font-family="'SourceSansPro-Regular'" font-size="12px">Men</text>
</g>
</svg>
