<svg width="928" height="860" viewBox="-150,-430,928,860" style="max-width: 100%; height: auto; font: 16px Arial,sans-serif; user-select: none;" xmlns="http://www.w3.org/2000/svg" xmlns:xlink="http://www.w3.org/1999/xlink"><g fill="none" stroke="rgba(171, 150, 54, .5)" stroke-opacity="0.5" stroke-width="3"><path d="M0,0C128,0,128,-410,256,-410"/><path d="M0,0C128,0,128,-350,256,-350"/><path d="M0,0C128,0,128,-280,256,-280"/><path d="M0,0C128,0,128,-210,256,-210"/><path d="M0,0C128,0,128,-150,256,-150"/><path d="M0,0C128,0,128,-115,256,-115"/><path d="M0,0C128,0,128,-80,256,-80"/><path d="M0,0C128,0,128,-50,256,-50"/><path d="M0,0C128,0,128,-20,256,-20"/><path d="M0,0C128,0,128,30,256,30"/><path d="M0,0C128,0,128,90,256,90"/><path d="M0,0C128,0,128,150,256,150"/><path d="M0,0C128,0,128,240,256,240"/><path d="M0,0C128,0,128,340,256,340"/><path d="M0,0C128,0,128,375,256,375"/><path d="M0,0C128,0,128,410,256,410"/><path d="M256,-410C384,-410,384,-420,512,-420"/><path d="M256,-410C384,-410,384,-400,512,-400"/><path d="M256,-350C384,-350,384,-360,512,-360"/><path d="M256,-350C384,-350,384,-340,512,-340"/><path d="M256,-280C384,-280,384,-300,512,-300"/><path d="M256,-280C384,-280,384,-280,512,-280"/><path d="M256,-280C384,-280,384,-260,512,-260"/><path d="M256,-210C384,-210,384,-220,512,-220"/><path d="M256,-210C384,-210,384,-200,512,-200"/><path d="M256,-150C384,-150,384,-160,512,-160"/><path d="M256,-150C384,-150,384,-140,512,-140"/><path d="M256,-80C384,-80,384,-100,512,-100"/><path d="M256,-80C384,-80,384,-80,512,-80"/><path d="M256,-80C384,-80,384,-60,512,-60"/><path d="M256,-20C384,-20,384,-20,512,-20"/><path d="M256,30C384,30,384,20,512,20"/><path d="M256,30C384,30,384,40,512,40"/><path d="M256,90C384,90,384,80,512,80"/><path d="M256,90C384,90,384,100,512,100"/><path d="M256,150C384,150,384,140,512,140"/><path d="M256,150C384,150,384,160,512,160"/><path d="M256,240C384,240,384,200,512,200"/><path d="M256,240C384,240,384,220,512,220"/><path d="M256,240C384,240,384,240,512,240"/><path d="M256,240C384,240,384,260,512,260"/><path d="M256,240C384,240,384,280,512,280"/><path d="M256,340C384,340,384,320,512,320"/><path d="M256,340C384,340,384,340,512,340"/><path d="M256,340C384,340,384,360,512,360"/><path d="M256,410C384,410,384,400,512,400"/><path d="M256,410C384,410,384,420,512,420"/></g><g cursor="pointer" pointer-events="all"><g transform="translate(512, 420)" fill-opacity="1" stroke-opacity="1"><circle r="3" fill="rgb(96, 141, 171)" stroke-width="2"/><text dy="0.31em" x="6" text-anchor="start" stroke-linejoin="round" stroke-width="3" stroke="white" paint-order="stroke">Date</text></g><g transform="translate(512, 400)" fill-opacity="1" stroke-opacity="1"><circle r="3" fill="rgb(96, 141, 171)" stroke-width="2"/><text dy="0.31em" x="6" text-anchor="start" stroke-linejoin="round" stroke-width="3" stroke="white" paint-order="stroke">Place</text></g><g transform="translate(512, 360)" fill-opacity="1" stroke-opacity="1"><circle r="3" fill="rgb(96, 141, 171)" stroke-width="2"/><text dy="0.31em" x="6" text-anchor="start" stroke-linejoin="round" stroke-width="3" stroke="white" paint-order="stroke">Groups (for Types of Work)</text></g><g transform="translate(512, 340)" fill-opacity="1" stroke-opacity="1"><circle r="3" fill="rgb(96, 141, 171)" stroke-width="2"/><text dy="0.31em" x="6" text-anchor="start" stroke-linejoin="round" stroke-width="3" stroke="white" paint-order="stroke">Employer/Place/Publication</text></g><g transform="translate(512, 320)" fill-opacity="1" stroke-opacity="1"><circle r="3" fill="rgb(96, 141, 171)" stroke-width="2"/><text dy="0.31em" x="6" text-anchor="start" stroke-linejoin="round" stroke-width="3" stroke="white" paint-order="stroke">Date</text></g><g transform="translate(512, 280)" fill-opacity="1" stroke-opacity="1"><circle r="3" fill="rgb(96, 141, 171)" stroke-width="2"/><text dy="0.31em" x="6" text-anchor="start" stroke-linejoin="round" stroke-width="3" stroke="white" paint-order="stroke">Place</text></g><g transform="translate(512, 260)" fill-opacity="1" stroke-opacity="1"><circle r="3" fill="rgb(96, 141, 171)" stroke-width="2"/><text dy="0.31em" x="6" text-anchor="start" stroke-linejoin="round" stroke-width="3" stroke="white" paint-order="stroke">Institution</text></g><g transform="translate(512, 240)" fill-opacity="1" stroke-opacity="1"><circle r="3" fill="rgb(96, 141, 171)" stroke-width="2"/><text dy="0.31em" x="6" text-anchor="start" stroke-linejoin="round" stroke-width="3" stroke="white" paint-order="stroke">Teacher</text></g><g transform="translate(512, 220)" fill-opacity="1" stroke-opacity="1"><circle r="3" fill="rgb(96, 141, 171)" stroke-width="2"/><text dy="0.31em" x="6" text-anchor="start" stroke-linejoin="round" stroke-width="3" stroke="white" paint-order="stroke">Degree</text></g><g transform="translate(512, 200)" fill-opacity="1" stroke-opacity="1"><circle r="3" fill="rgb(96, 141, 171)" stroke-width="2"/><text dy="0.31em" x="6" text-anchor="start" stroke-linejoin="round" stroke-width="3" stroke="white" paint-order="stroke">Date</text></g><g transform="translate(512, 160)" fill-opacity="1" stroke-opacity="1"><circle r="3" fill="rgb(96, 141, 171)" stroke-width="2"/><text dy="0.31em" x="6" text-anchor="start" stroke-linejoin="round" stroke-width="3" stroke="white" paint-order="stroke">Role</text></g><g transform="translate(512, 140)" fill-opacity="1" stroke-opacity="1"><circle r="3" fill="rgb(96, 141, 171)" stroke-width="2"/><text dy="0.31em" x="6" text-anchor="start" stroke-linejoin="round" stroke-width="3" stroke="white" paint-order="stroke">Institution</text></g><g transform="translate(512, 100)" fill-opacity="1" stroke-opacity="1"><circle r="3" fill="rgb(96, 141, 171)" stroke-width="2"/><text dy="0.31em" x="6" text-anchor="start" stroke-linejoin="round" stroke-width="3" stroke="white" paint-order="stroke">Prize or Fellowship</text></g><g transform="translate(512, 80)" fill-opacity="1" stroke-opacity="1"><circle r="3" fill="rgb(96, 141, 171)" stroke-width="2"/><text dy="0.31em" x="6" text-anchor="start" stroke-linejoin="round" stroke-width="3" stroke="white" paint-order="stroke">Institution</text></g><g transform="translate(512, 40)" fill-opacity="1" stroke-opacity="1"><circle r="3" fill="rgb(96, 141, 171)" stroke-width="2"/><text dy="0.31em" x="6" text-anchor="start" stroke-linejoin="round" stroke-width="3" stroke="white" paint-order="stroke">Rank</text></g><g transform="translate(512, 20)" fill-opacity="1" stroke-opacity="1"><circle r="3" fill="rgb(96, 141, 171)" stroke-width="2"/><text dy="0.31em" x="6" text-anchor="start" stroke-linejoin="round" stroke-width="3" stroke="white" paint-order="stroke">Army or Naval Branch</text></g><g transform="translate(512, -20)" fill-opacity="1" stroke-opacity="1"><circle r="3" fill="rgb(96, 141, 171)" stroke-width="2"/><text dy="0.31em" x="6" text-anchor="start" stroke-linejoin="round" stroke-width="3" stroke="white" paint-order="stroke">Mentioned Names Entry ID</text></g><g transform="translate(512, -60)" fill-opacity="1" stroke-opacity="1"><circle r="3" fill="rgb(96, 141, 171)" stroke-width="2"/><text dy="0.31em" x="6" text-anchor="start" stroke-linejoin="round" stroke-width="3" stroke="white" paint-order="stroke">Extracted from Heading</text></g><g transform="translate(512, -80)" fill-opacity="1" stroke-opacity="1"><circle r="3" fill="rgb(96, 141, 171)" stroke-width="2"/><text dy="0.31em" x="6" text-anchor="start" stroke-linejoin="round" stroke-width="3" stroke="white" paint-order="stroke">Extracted from Narrative</text></g><g transform="translate(512, -100)" fill-opacity="1" stroke-opacity="1"><circle r="3" fill="rgb(96, 141, 171)" stroke-width="2"/><text dy="0.31em" x="6" text-anchor="start" stroke-linejoin="round" stroke-width="3" stroke="white" paint-order="stroke">From Dictionary</text></g><g transform="translate(512, -140)" fill-opacity="1" stroke-opacity="1"><circle r="3" fill="rgb(96, 141, 171)" stroke-width="2"/><text dy="0.31em" x="6" text-anchor="start" stroke-linejoin="round" stroke-width="3" stroke="white" paint-order="stroke">Place</text></g><g transform="translate(512, -160)" fill-opacity="1" stroke-opacity="1"><circle r="3" fill="rgb(96, 141, 171)" stroke-width="2"/><text dy="0.31em" x="6" text-anchor="start" stroke-linejoin="round" stroke-width="3" stroke="white" paint-order="stroke">Date</text></g><g transform="translate(512, -200)" fill-opacity="1" stroke-opacity="1"><circle r="3" fill="rgb(96, 141, 171)" stroke-width="2"/><text dy="0.31em" x="6" text-anchor="start" stroke-linejoin="round" stroke-width="3" stroke="white" paint-order="stroke">Date</text></g><g transform="translate(512, -220)" fill-opacity="1" stroke-opacity="1"><circle r="3" fill="rgb(96, 141, 171)" stroke-width="2"/><text dy="0.31em" x="6" text-anchor="start" stroke-linejoin="round" stroke-width="3" stroke="white" paint-order="stroke">Place</text></g><g transform="translate(512, -260)" fill-opacity="1" stroke-opacity="1"><circle r="3" fill="rgb(96, 141, 171)" stroke-width="2"/><text dy="0.31em" x="6" text-anchor="start" stroke-linejoin="round" stroke-width="3" stroke="white" paint-order="stroke">Data Not Available</text></g><g transform="translate(512, -280)" fill-opacity="1" stroke-opacity="1"><circle r="3" fill="rgb(96, 141, 171)" stroke-width="2"/><text dy="0.31em" x="6" text-anchor="start" stroke-linejoin="round" stroke-width="3" stroke="white" paint-order="stroke">Female</text></g><g transform="translate(512, -300)" fill-opacity="1" stroke-opacity="1"><circle r="3" fill="rgb(96, 141, 171)" stroke-width="2"/><text dy="0.31em" x="6" text-anchor="start" stroke-linejoin="round" stroke-width="3" stroke="white" paint-order="stroke">Male</text></g><g transform="translate(512, -340)" fill-opacity="1" stroke-opacity="1"><circle r="3" fill="rgb(96, 141, 171)" stroke-width="2"/><text dy="0.31em" x="6" text-anchor="start" stroke-linejoin="round" stroke-width="3" stroke="white" paint-order="stroke">Sequence (for Multiple Marriages)</text></g><g transform="translate(512, -360)" fill-opacity="1" stroke-opacity="1"><circle r="3" fill="rgb(96, 141, 171)" stroke-width="2"/><text dy="0.31em" x="6" text-anchor="start" stroke-linejoin="round" stroke-width="3" stroke="white" paint-order="stroke">Date</text></g><g transform="translate(512, -400)" fill-opacity="1" stroke-opacity="1"><circle r="3" fill="rgb(96, 141, 171)" stroke-width="2"/><text dy="0.31em" x="6" text-anchor="start" stroke-linejoin="round" stroke-width="3" stroke="white" paint-order="stroke">Parents Entry ID</text></g><g transform="translate(512, -420)" fill-opacity="1" stroke-opacity="1"><circle r="3" fill="rgb(96, 141, 171)" stroke-width="2"/><text dy="0.31em" x="6" text-anchor="start" stroke-linejoin="round" stroke-width="3" stroke="white" paint-order="stroke">Parents Names</text></g><g transform="translate(256, 410)" fill-opacity="1" stroke-opacity="1"><circle r="3" fill="rgb(168, 76, 34)" stroke-width="2"/><text dy="0.31em" x="-6" text-anchor="end" stroke-linejoin="round" stroke-width="3" stroke="white" paint-order="stroke">Travel</text></g><g transform="translate(256, 375)" fill-opacity="1" stroke-opacity="1"><circle r="3" fill="rgb(96, 141, 171)" stroke-width="2"/><text dy="0.31em" x="6" text-anchor="start" stroke-linejoin="round" stroke-width="3" stroke="white" paint-order="stroke">DBITI Employments &amp; Identifiers</text></g><g transform="translate(256, 340)" fill-opacity="1" stroke-opacity="1"><circle r="3" fill="rgb(168, 76, 34)" stroke-width="2"/><text dy="0.31em" x="-6" text-anchor="end" stroke-linejoin="round" stroke-width="3" stroke="white" paint-order="stroke">Occupations &amp; Posts</text></g><g transform="translate(256, 240)" fill-opacity="1" stroke-opacity="1"><circle r="3" fill="rgb(168, 76, 34)" stroke-width="2"/><text dy="0.31em" x="-6" text-anchor="end" stroke-linejoin="round" stroke-width="3" stroke="white" paint-order="stroke">Education</text></g><g transform="translate(256, 150)" fill-opacity="1" stroke-opacity="1"><circle r="3" fill="rgb(168, 76, 34)" stroke-width="2"/><text dy="0.31em" x="-6" text-anchor="end" stroke-linejoin="round" stroke-width="3" stroke="white" paint-order="stroke">Societies &amp; Academies</text></g><g transform="translate(256, 90)" fill-opacity="1" stroke-opacity="1"><circle r="3" fill="rgb(168, 76, 34)" stroke-width="2"/><text dy="0.31em" x="-6" text-anchor="end" stroke-linejoin="round" stroke-width="3" stroke="white" paint-order="stroke">Exhibitions &amp; Awards</text></g><g transform="translate(256, 30)" fill-opacity="1" stroke-opacity="1"><circle r="3" fill="rgb(168, 76, 34)" stroke-width="2"/><text dy="0.31em" x="-6" text-anchor="end" stroke-linejoin="round" stroke-width="3" stroke="white" paint-order="stroke">Military Careers</text></g><g transform="translate(256, -20)" fill-opacity="1" stroke-opacity="1"><circle r="3" fill="rgb(168, 76, 34)" stroke-width="2"/><text dy="0.31em" x="-6" text-anchor="end" stroke-linejoin="round" stroke-width="3" stroke="white" paint-order="stroke">Mentioned Names</text></g><g transform="translate(256, -50)" fill-opacity="1" stroke-opacity="1"><circle r="3" fill="rgb(96, 141, 171)" stroke-width="2"/><text dy="0.31em" x="6" text-anchor="start" stroke-linejoin="round" stroke-width="3" stroke="white" paint-order="stroke">Sources</text></g><g transform="translate(256, -80)" fill-opacity="1" stroke-opacity="1"><circle r="3" fill="rgb(168, 76, 34)" stroke-width="2"/><text dy="0.31em" x="-6" text-anchor="end" stroke-linejoin="round" stroke-width="3" stroke="white" paint-order="stroke">Entry Origin</text></g><g transform="translate(256, -115)" fill-opacity="1" stroke-opacity="1"><circle r="3" fill="rgb(96, 141, 171)" stroke-width="2"/><text dy="0.31em" x="6" text-anchor="start" stroke-linejoin="round" stroke-width="3" stroke="white" paint-order="stroke">Travelers Names</text></g><g transform="translate(256, -150)" fill-opacity="1" stroke-opacity="1"><circle r="3" fill="rgb(168, 76, 34)" stroke-width="2"/><text dy="0.31em" x="-6" text-anchor="end" stroke-linejoin="round" stroke-width="3" stroke="white" paint-order="stroke">Death</text></g><g transform="translate(256, -210)" fill-opacity="1" stroke-opacity="1"><circle r="3" fill="rgb(168, 76, 34)" stroke-width="2"/><text dy="0.31em" x="-6" text-anchor="end" stroke-linejoin="round" stroke-width="3" stroke="white" paint-order="stroke">Birth</text></g><g transform="translate(256, -280)" fill-opacity="1" stroke-opacity="1"><circle r="3" fill="rgb(168, 76, 34)" stroke-width="2"/><text dy="0.31em" x="-6" text-anchor="end" stroke-linejoin="round" stroke-width="3" stroke="white" paint-order="stroke">Gender</text></g><g transform="translate(256, -350)" fill-opacity="1" stroke-opacity="1"><circle r="3" fill="rgb(168, 76, 34)" stroke-width="2"/><text dy="0.31em" x="-6" text-anchor="end" stroke-linejoin="round" stroke-width="3" stroke="white" paint-order="stroke">Marriages</text></g><g transform="translate(256, -410)" fill-opacity="1" stroke-opacity="1"><circle r="3" fill="rgb(168, 76, 34)" stroke-width="2"/><text dy="0.31em" x="-6" text-anchor="end" stroke-linejoin="round" stroke-width="3" stroke="white" paint-order="stroke">Parents</text></g><g transform="" fill-opacity="1" stroke-opacity="1"><circle r="3" fill="rgb(168, 76, 34)" stroke-width="2"/><text dy="0.31em" x="-6" text-anchor="end" stroke-linejoin="round" stroke-width="3" stroke="white" paint-order="stroke">Traveler Entry ID</text></g></g></svg>