<?xml version="1.0" encoding="utf-8"?>
<!-- Generator: Adobe Illustrator 23.0.4, SVG Export Plug-In . SVG Version: 6.00 Build 0)  -->
<svg version="1.1" xmlns="http://www.w3.org/2000/svg" xmlns:xlink="http://www.w3.org/1999/xlink" x="0px" y="0px" width="560px"
	 height="420px" viewBox="0 0 560 420" enable-background="new 0 0 560 420" xml:space="preserve">
<g id="calaresu_5" display="none">
	<text transform="matrix(1 0 0 1 41.2627 386.9219)" display="inline" font-family="'SourceSansPro-Regular'" font-size="12px">0</text>
	<text transform="matrix(1 0 0 1 29.335 340.1553)" display="inline" font-family="'SourceSansPro-Regular'" font-size="12px">100</text>
	<text transform="matrix(1 0 0 1 29.335 294.3896)" display="inline" font-family="'SourceSansPro-Regular'" font-size="12px">200</text>
	<text transform="matrix(1 0 0 1 29.335 248.624)" display="inline" font-family="'SourceSansPro-Regular'" font-size="12px">300</text>
	<text transform="matrix(1 0 0 1 29.335 202.8584)" display="inline" font-family="'SourceSansPro-Regular'" font-size="12px">400</text>
	<text transform="matrix(1 0 0 1 29.335 157.0928)" display="inline" font-family="'SourceSansPro-Regular'" font-size="12px">500</text>
	<text transform="matrix(1 0 0 1 29.3345 111.3271)" display="inline" font-family="'SourceSansPro-Regular'" font-size="12px">600</text>
	<text transform="matrix(1 0 0 1 29.3355 65.5615)" display="inline" font-family="'SourceSansPro-Regular'" font-size="12px">700</text>
	<text transform="matrix(1 0 0 1 29.3345 19.7959)" display="inline" font-family="'SourceSansPro-Regular'" font-size="12px">800</text>
	<rect x="59.11" y="41.38" display="inline" fill="#6DDA8B" width="36.48" height="340.5"/>
	<rect x="109.83" y="44.59" display="inline" fill="#B376B4" width="36.48" height="337.29"/>
	<rect x="160.55" y="151.68" display="inline" fill="#7FB8DA" width="36.48" height="230.2"/>
	<rect x="211.28" y="217.12" display="inline" fill="#AC7879" width="36.48" height="164.76"/>
	<rect x="262" y="288.06" display="inline" fill="#6D818E" width="36.48" height="93.82"/>
	<rect x="312.73" y="314.15" display="inline" fill="#FDDE88" width="36.48" height="67.73"/>
	<rect x="363.45" y="321.47" display="inline" fill="#D79277" width="36.48" height="60.41"/>
	<rect x="414.18" y="331.54" display="inline" fill="#DBBC67" width="36.48" height="50.34"/>
	<rect x="464.9" y="333.82" display="inline" fill="#78AC86" width="36.48" height="48.05"/>
	<rect x="515.63" y="341.6" display="inline" fill="#FAB876" width="36.48" height="40.27"/>
	<text transform="matrix(1 0 0 1 517.6761 397.6846)" display="inline" font-family="'SourceSansPro-Regular'" font-size="12px">Padua</text>
	<text transform="matrix(1 0 0 1 462.3481 397.6846)" display="inline" font-family="'SourceSansPro-Regular'" font-size="12px">Leghorn</text>
	<text transform="matrix(1 0 0 1 418.6972 397.6846)" display="inline" font-family="'SourceSansPro-Regular'" font-size="12px">Milan</text>
	<text transform="matrix(1 0 0 1 365.4101 397.6846)" display="inline" font-family="'SourceSansPro-Regular'" font-size="12px">Genoa</text>
	<text transform="matrix(1 0 0 1 310.0312 397.6846)" display="inline" font-family="'SourceSansPro-Regular'" font-size="12px">Bologna</text>
	<text transform="matrix(1 0 0 1 266.9254 397.6846)" display="inline" font-family="'SourceSansPro-Regular'" font-size="12px">Turin</text>
	<text transform="matrix(1 0 0 1 265.8698 415.6846)" display="inline" font-family="'SourceSansPro-Semibold'" font-size="12px">Place</text>
	<text transform="matrix(1 0 0 1 212.2174 397.6846)" display="inline" font-family="'SourceSansPro-Regular'" font-size="12px">Naples</text>
	<text transform="matrix(1 0 0 1 156.9986 397.6846)" display="inline" font-family="'SourceSansPro-Regular'" font-size="12px">Florence</text>
	<text transform="matrix(1 0 0 1 111.5357 397.6846)" display="inline" font-family="'SourceSansPro-Regular'" font-size="12px">Venice</text>
	<text transform="matrix(1 0 0 1 62.6589 397.6846)" display="inline" font-family="'SourceSansPro-Regular'" font-size="12px">Rome</text>
	
		<text transform="matrix(6.123234e-17 -1 1 6.123234e-17 14.3887 257.0571)" display="inline" font-family="'SourceSansPro-Semibold'" font-size="12px">Number of Dated Trips</text>
	
		<line display="inline" fill="none" stroke="#6D6E71" stroke-width="0.25" stroke-miterlimit="10" x1="20" y1="16" x2="560" y2="16"/>
	
		<line display="inline" fill="none" stroke="#6D6E71" stroke-width="0.25" stroke-miterlimit="10" x1="20" y1="62" x2="560" y2="62"/>
	
		<line display="inline" fill="none" stroke="#6D6E71" stroke-width="0.25" stroke-miterlimit="10" x1="20" y1="107" x2="560" y2="107"/>
	
		<line display="inline" fill="none" stroke="#6D6E71" stroke-width="0.25" stroke-miterlimit="10" x1="20" y1="152" x2="560" y2="152"/>
	
		<line display="inline" fill="none" stroke="#6D6E71" stroke-width="0.25" stroke-miterlimit="10" x1="20" y1="199" x2="560" y2="199"/>
	
		<line display="inline" fill="none" stroke="#6D6E71" stroke-width="0.25" stroke-miterlimit="10" x1="20" y1="245" x2="560" y2="245"/>
	
		<line display="inline" fill="none" stroke="#6D6E71" stroke-width="0.25" stroke-miterlimit="10" x1="20" y1="290" x2="560" y2="290"/>
	
		<line display="inline" fill="none" stroke="#6D6E71" stroke-width="0.25" stroke-miterlimit="10" x1="20" y1="336" x2="560" y2="336"/>
	
		<line display="inline" fill="none" stroke="#6D6E71" stroke-width="0.25" stroke-miterlimit="10" x1="20" y1="382" x2="560" y2="382"/>
</g>
<g id="calaresu_6" display="none">
	<g display="inline">
		<text transform="matrix(1 0 0 1 41.3389 384.6406)" font-family="'SourceSansPro-Regular'" font-size="12px">0</text>
		<text transform="matrix(1 0 0 1 35.375 311.8145)" font-family="'SourceSansPro-Regular'" font-size="12px">10</text>
		<text transform="matrix(1 0 0 1 35.375 238.9893)" font-family="'SourceSansPro-Regular'" font-size="12px">20</text>
		<text transform="matrix(1 0 0 1 35.375 166.1631)" font-family="'SourceSansPro-Regular'" font-size="12px">30</text>
		<text transform="matrix(1 0 0 1 35.375 93.3374)" font-family="'SourceSansPro-Regular'" font-size="12px">40</text>
		<text transform="matrix(1 0 0 1 35.375 20.5117)" font-family="'SourceSansPro-Regular'" font-size="12px">50</text>
	</g>
	<rect x="59.86" y="46.01" display="inline" fill="#6DDA8B" width="35.38" height="335"/>
	<rect x="110.55" y="78.78" display="inline" fill="#AC7879" width="35.38" height="302.23"/>
	<rect x="161.24" y="271.76" display="inline" fill="#7FB8DA" width="35.38" height="109.24"/>
	<rect x="211.93" y="293.61" display="inline" fill="#B376B4" width="35.38" height="87.39"/>
	<rect x="262.62" y="315.46" display="inline" fill="#6D818E" width="35.38" height="65.54"/>
	<rect x="313.31" y="319.1" display="inline" fill="#DBBC67" width="35.38" height="61.9"/>
	<rect x="363.99" y="322.74" display="inline" fill="#D79277" width="35.38" height="58.26"/>
	<rect x="414.68" y="330.03" display="inline" fill="#78AC86" width="35.38" height="50.98"/>
	<rect x="465.37" y="344.59" display="inline" fill="#FDDE88" width="35.38" height="36.41"/>
	<rect x="516.06" y="366.44" display="inline" fill="#FAB876" width="35.38" height="14.57"/>
	<text transform="matrix(1 0 0 1 517.5576 397.9668)" display="inline" font-family="'SourceSansPro-Regular'" font-size="12px">Padua</text>
	<text transform="matrix(1 0 0 1 462.1222 397.9668)" display="inline" font-family="'SourceSansPro-Regular'" font-size="12px">Bologna</text>
	<text transform="matrix(1 0 0 1 411.5765 397.9668)" display="inline" font-family="'SourceSansPro-Regular'" font-size="12px">Leghorn</text>
	<text transform="matrix(1 0 0 1 365.3979 397.9668)" display="inline" font-family="'SourceSansPro-Regular'" font-size="12px">Genoa</text>
	<text transform="matrix(1 0 0 1 317.2711 397.9668)" display="inline" font-family="'SourceSansPro-Regular'" font-size="12px">Milan</text>
	<text transform="matrix(1 0 0 1 266.9842 397.9668)" display="inline" font-family="'SourceSansPro-Regular'" font-size="12px">Turin</text>
	<text transform="matrix(1 0 0 1 213.0789 397.9668)" display="inline" font-family="'SourceSansPro-Regular'" font-size="12px">Venice</text>
	<text transform="matrix(1 0 0 1 157.1283 397.9668)" display="inline" font-family="'SourceSansPro-Regular'" font-size="12px">Florence</text>
	<text transform="matrix(1 0 0 1 110.9327 397.9668)" display="inline" font-family="'SourceSansPro-Regular'" font-size="12px">Naples</text>
	<text transform="matrix(1 0 0 1 62.8589 397.9668)" display="inline" font-family="'SourceSansPro-Regular'" font-size="12px">Rome</text>
	
		<line display="inline" fill="none" stroke="#6D6E71" stroke-width="0.25" stroke-miterlimit="10" x1="20" y1="308" x2="560" y2="308"/>
	
		<line display="inline" fill="none" stroke="#6D6E71" stroke-width="0.25" stroke-miterlimit="10" x1="20" y1="381" x2="560" y2="381"/>
	
		<line display="inline" fill="none" stroke="#6D6E71" stroke-width="0.25" stroke-miterlimit="10" x1="20" y1="235" x2="560" y2="235"/>
	
		<line display="inline" fill="none" stroke="#6D6E71" stroke-width="0.25" stroke-miterlimit="10" x1="20" y1="163" x2="560" y2="163"/>
	
		<line display="inline" fill="none" stroke="#6D6E71" stroke-width="0.25" stroke-miterlimit="10" x1="20" y1="90" x2="560" y2="90"/>
	
		<line display="inline" fill="none" stroke="#6D6E71" stroke-width="0.25" stroke-miterlimit="10" x1="20" y1="17" x2="560" y2="17"/>
	<text transform="matrix(1 0 0 1 265.8698 415.6846)" display="inline" font-family="'SourceSansPro-Semibold'" font-size="12px">Place</text>
	
		<text transform="matrix(6.123234e-17 -1 1 6.123234e-17 14.3887 268.7031)" display="inline" font-family="'SourceSansPro-Semibold'" font-size="12px">Median Days of Dated Trips</text>
</g>
<g id="calaresu_7a" display="none">
	<g display="inline">
		<text transform="matrix(1 0 0 1 42.7285 384.1289)" font-family="'SourceSansPro-Regular'" font-size="12px">0</text>
		<text transform="matrix(1 0 0 1 36.7646 323.6279)" font-family="'SourceSansPro-Regular'" font-size="12px">50</text>
		<text transform="matrix(1 0 0 1 30.8008 263.127)" font-family="'SourceSansPro-Regular'" font-size="12px">100</text>
		<text transform="matrix(1 0 0 1 30.8008 202.627)" font-family="'SourceSansPro-Regular'" font-size="12px">150</text>
		<text transform="matrix(1 0 0 1 30.8008 142.1265)" font-family="'SourceSansPro-Regular'" font-size="12px">200</text>
		<text transform="matrix(1 0 0 1 30.8008 81.6255)" font-family="'SourceSansPro-Regular'" font-size="12px">250</text>
		<text transform="matrix(1 0 0 1 30.8008 21.125)" font-family="'SourceSansPro-Regular'" font-size="12px">300</text>
	</g>
	<rect x="59.99" y="369.01" display="inline" fill="#FDDE88" width="39.25" height="11.5"/>
	<rect x="116.51" y="326.66" display="inline" fill="#7FB8DA" width="39.25" height="53.85"/>
	<rect x="173.03" y="357.51" display="inline" fill="#78AC86" width="39.25" height="22.99"/>
	<rect x="229.55" y="378.08" display="inline" fill="#DBBC67" width="39.25" height="2.42"/>
	<rect x="286.07" y="292.78" display="inline" fill="#AC7879" width="39.25" height="87.73"/>
	<rect x="342.59" y="378.08" display="inline" fill="#FAB876" width="39.25" height="2.42"/>
	<rect x="399.1" y="17.5" display="inline" fill="#6DDA8B" width="39.25" height="363"/>
	<rect x="455.62" y="378.08" display="inline" fill="#6D818E" width="39.25" height="2.42"/>
	<rect x="512.14" y="366.59" display="inline" fill="#B376B4" width="39.25" height="13.92"/>
	<text transform="matrix(1 0 0 1 515.2324 397.9672)" display="inline" font-family="'SourceSansPro-Regular'" font-size="12px">Venice</text>
	<text transform="matrix(1 0 0 1 461.93 397.9672)" display="inline" font-family="'SourceSansPro-Regular'" font-size="12px">Turin</text>
	<text transform="matrix(1 0 0 1 404.0432 397.9672)" display="inline" font-family="'SourceSansPro-Regular'" font-size="12px">Rome</text>
	<text transform="matrix(1 0 0 1 346.0191 397.9672)" display="inline" font-family="'SourceSansPro-Regular'" font-size="12px">Padua</text>
	<text transform="matrix(1 0 0 1 288.3898 397.9672)" display="inline" font-family="'SourceSansPro-Regular'" font-size="12px">Naples</text>
	<text transform="matrix(1 0 0 1 235.4531 397.9672)" display="inline" font-family="'SourceSansPro-Regular'" font-size="12px">Milan</text>
	<text transform="matrix(1 0 0 1 171.8602 397.9672)" display="inline" font-family="'SourceSansPro-Regular'" font-size="12px">Leghorn</text>
	<text transform="matrix(1 0 0 1 114.3395 397.9672)" display="inline" font-family="'SourceSansPro-Regular'" font-size="12px">Florence</text>
	<text transform="matrix(1 0 0 1 58.6782 397.9672)" display="inline" font-family="'SourceSansPro-Regular'" font-size="12px">Bologna</text>
	
		<line display="inline" fill="none" stroke="#6D6E71" stroke-width="0.25" stroke-miterlimit="10" x1="20" y1="18" x2="560" y2="18"/>
	
		<line display="inline" fill="none" stroke="#6D6E71" stroke-width="0.25" stroke-miterlimit="10" x1="20" y1="78" x2="560" y2="78"/>
	
		<line display="inline" fill="none" stroke="#6D6E71" stroke-width="0.25" stroke-miterlimit="10" x1="20" y1="139" x2="560" y2="139"/>
	
		<line display="inline" fill="none" stroke="#6D6E71" stroke-width="0.25" stroke-miterlimit="10" x1="20" y1="199" x2="560" y2="199"/>
	
		<line display="inline" fill="none" stroke="#6D6E71" stroke-width="0.25" stroke-miterlimit="10" x1="20" y1="260" x2="560" y2="260"/>
	
		<line display="inline" fill="none" stroke="#6D6E71" stroke-width="0.25" stroke-miterlimit="10" x1="20" y1="320" x2="560" y2="320"/>
	
		<line display="inline" fill="none" stroke="#6D6E71" stroke-width="0.25" stroke-miterlimit="10" x1="20" y1="381" x2="560" y2="381"/>
	<text transform="matrix(1 0 0 1 265.8698 415.6846)" display="inline" font-family="'SourceSansPro-Semibold'" font-size="12px">Place</text>
	
		<text transform="matrix(6.123234e-17 -1 1 6.123234e-17 14.3887 268.7031)" display="inline" font-family="'SourceSansPro-Semibold'" font-size="12px">Median Days of Dated Trips</text>
</g>
<g id="calaresu_7b">
	<g>
		<text transform="matrix(1 0 0 1 47.3901 384.0957)" font-family="'SourceSansPro-Regular'" font-size="12px">0</text>
		<text transform="matrix(1 0 0 1 29.498 311.9951)" font-family="'SourceSansPro-Regular'" font-size="12px">1000</text>
		<text transform="matrix(1 0 0 1 29.498 239.8945)" font-family="'SourceSansPro-Regular'" font-size="12px">2000</text>
		<text transform="matrix(1 0 0 1 29.498 167.7935)" font-family="'SourceSansPro-Regular'" font-size="12px">3000</text>
		<text transform="matrix(1 0 0 1 29.498 95.6929)" font-family="'SourceSansPro-Regular'" font-size="12px">4000</text>
		<text transform="matrix(1 0 0 1 29.498 23.5918)" font-family="'SourceSansPro-Regular'" font-size="12px">5000</text>
	</g>
	<rect x="78.1" y="377.34" fill="#7FB8DA" width="87.98" height="2.16"/>
	<rect x="200.3" y="66.73" fill="#78AC86" width="87.98" height="312.77"/>
	<rect x="322.49" y="376.91" fill="#6DDA8B" width="87.98" height="2.6"/>
	<rect x="444.69" y="378.03" fill="#B376B4" width="87.98" height="1.48"/>
	<g>
		<text transform="matrix(1 0 0 1 468.6475 397.9672)" font-family="'SourceSansPro-Regular'" font-size="12px">Venice</text>
		<text transform="matrix(1 0 0 1 348.2979 397.9672)" font-family="'SourceSansPro-Regular'" font-size="12px">Rome</text>
		<text transform="matrix(1 0 0 1 219.9922 397.9672)" font-family="'SourceSansPro-Regular'" font-size="12px">Leghorn</text>
		<text transform="matrix(1 0 0 1 96.793 397.9672)" font-family="'SourceSansPro-Regular'" font-size="12px">Florence</text>
	</g>
	<line fill="none" stroke="#6D6E71" stroke-width="0.25" stroke-miterlimit="10" x1="20" y1="307" x2="560" y2="307"/>
	<line fill="none" stroke="#6D6E71" stroke-width="0.25" stroke-miterlimit="10" x1="20" y1="235" x2="560" y2="235"/>
	<line fill="none" stroke="#6D6E71" stroke-width="0.25" stroke-miterlimit="10" x1="20" y1="163" x2="560" y2="163"/>
	<line fill="none" stroke="#6D6E71" stroke-width="0.25" stroke-miterlimit="10" x1="20" y1="91" x2="560" y2="91"/>
	<line fill="none" stroke="#6D6E71" stroke-width="0.25" stroke-miterlimit="10" x1="20" y1="19" x2="560" y2="19"/>
	<line fill="none" stroke="#6D6E71" stroke-width="0.25" stroke-miterlimit="10" x1="20" y1="380" x2="560" y2="380"/>
	<text transform="matrix(1 0 0 1 265.8698 415.6846)" font-family="'SourceSansPro-Semibold'" font-size="12px">Place</text>
	
		<text transform="matrix(6.123234e-17 -1 1 6.123234e-17 14.3887 268.7031)" font-family="'SourceSansPro-Semibold'" font-size="12px">Median Days of Dated Trips</text>
</g>
<g id="calaresu_7c" display="none">
	<g display="inline">
		<text transform="matrix(1 0 0 1 47.0615 384.4619)" font-family="'SourceSansPro-Regular'" font-size="12px">0</text>
		<text transform="matrix(1 0 0 1 41.0977 294.8359)" font-family="'SourceSansPro-Regular'" font-size="12px">50</text>
		<text transform="matrix(1 0 0 1 35.1338 205.21)" font-family="'SourceSansPro-Regular'" font-size="12px">100</text>
		<text transform="matrix(1 0 0 1 35.1338 115.584)" font-family="'SourceSansPro-Regular'" font-size="12px">150</text>
		<text transform="matrix(1 0 0 1 35.1338 25.958)" font-family="'SourceSansPro-Regular'" font-size="12px">200</text>
	</g>
	<rect x="86.14" y="246.75" display="inline" fill="#FDDE88" width="36.22" height="131.75"/>
	<rect x="136.44" y="341.76" display="inline" fill="#7FB8DA" width="36.22" height="36.75"/>
	<rect x="186.75" y="302.32" display="inline" fill="#D79277" width="36.22" height="76.18"/>
	<rect x="237.05" y="362.37" display="inline" fill="#78AC86" width="36.22" height="16.13"/>
	<rect x="287.35" y="326.52" display="inline" fill="#DBBC67" width="36.22" height="51.98"/>
	<rect x="337.66" y="237.79" display="inline" fill="#AC7879" width="36.22" height="140.71"/>
	<rect x="387.96" y="93.49" display="inline" fill="#6DDA8B" width="36.22" height="285.01"/>
	<rect x="438.26" y="122.17" display="inline" fill="#6D818E" width="36.22" height="256.33"/>
	<rect x="488.56" y="153.54" display="inline" fill="#B376B4" width="36.22" height="224.96"/>
	<g display="inline">
		<text transform="matrix(1 0 0 1 490.1377 397.9672)" font-family="'SourceSansPro-Regular'" font-size="12px">Venice</text>
		<text transform="matrix(1 0 0 1 443.0518 397.9672)" font-family="'SourceSansPro-Regular'" font-size="12px">Turin</text>
		<text transform="matrix(1 0 0 1 391.3799 397.9672)" font-family="'SourceSansPro-Regular'" font-size="12px">Rome</text>
		<text transform="matrix(1 0 0 1 338.4609 397.9672)" font-family="'SourceSansPro-Regular'" font-size="12px">Naples</text>
		<text transform="matrix(1 0 0 1 291.7402 397.9672)" font-family="'SourceSansPro-Regular'" font-size="12px">Milan</text>
		<text transform="matrix(1 0 0 1 234.3633 397.9672)" font-family="'SourceSansPro-Regular'" font-size="12px">Leghorn</text>
		<text transform="matrix(1 0 0 1 188.5728 397.9672)" font-family="'SourceSansPro-Regular'" font-size="12px">Genoa</text>
		<text transform="matrix(1 0 0 1 132.7559 397.9672)" font-family="'SourceSansPro-Regular'" font-size="12px">Florence</text>
		<text transform="matrix(1 0 0 1 83.3105 397.9672)" font-family="'SourceSansPro-Regular'" font-size="12px">Bologna</text>
	</g>
	
		<line display="inline" fill="none" stroke="#6D6E71" stroke-width="0.25" stroke-miterlimit="10" x1="20" y1="379" x2="560" y2="379"/>
	
		<line display="inline" fill="none" stroke="#6D6E71" stroke-width="0.25" stroke-miterlimit="10" x1="20" y1="289" x2="560" y2="289"/>
	
		<line display="inline" fill="none" stroke="#6D6E71" stroke-width="0.25" stroke-miterlimit="10" x1="20" y1="199" x2="560" y2="199"/>
	
		<line display="inline" fill="none" stroke="#6D6E71" stroke-width="0.25" stroke-miterlimit="10" x1="20" y1="110" x2="560" y2="110"/>
	
		<line display="inline" fill="none" stroke="#6D6E71" stroke-width="0.25" stroke-miterlimit="10" x1="20" y1="20" x2="560" y2="20"/>
	<text transform="matrix(1 0 0 1 265.8698 415.6846)" display="inline" font-family="'SourceSansPro-Semibold'" font-size="12px">Place</text>
	
		<text transform="matrix(6.123234e-17 -1 1 6.123234e-17 14.3887 268.7031)" display="inline" font-family="'SourceSansPro-Semibold'" font-size="12px">Median Days of Dated Trips</text>
</g>
<g id="calaresu_7d" display="none">
	<g display="inline">
		<text transform="matrix(1 0 0 1 41.4692 386.5098)" font-family="'SourceSansPro-Regular'" font-size="12px">0</text>
		<text transform="matrix(1 0 0 1 35.5054 313.7334)" font-family="'SourceSansPro-Regular'" font-size="12px">30</text>
		<text transform="matrix(1 0 0 1 35.5054 240.958)" font-family="'SourceSansPro-Regular'" font-size="12px">60</text>
		<text transform="matrix(1 0 0 1 35.5054 168.1826)" font-family="'SourceSansPro-Regular'" font-size="12px">90</text>
		<text transform="matrix(1 0 0 1 29.5415 95.4067)" font-family="'SourceSansPro-Regular'" font-size="12px">120</text>
		<text transform="matrix(1 0 0 1 29.5415 22.6309)" font-family="'SourceSansPro-Regular'" font-size="12px">150</text>
	</g>
	<rect x="58.93" y="327.51" display="inline" fill="#7FB8DA" width="50.5" height="53.37"/>
	<rect x="132.74" y="363.9" display="inline" fill="#D79277" width="50.5" height="16.98"/>
	<rect x="206.55" y="325.08" display="inline" fill="#DBBC67" width="50.5" height="55.79"/>
	<rect x="280.36" y="82.5" display="inline" fill="#AC7879" width="50.5" height="298.38"/>
	<rect x="354.17" y="245.03" display="inline" fill="#6DDA8B" width="50.5" height="135.85"/>
	<rect x="427.98" y="363.9" display="inline" fill="#6D818E" width="50.5" height="16.98"/>
	<rect x="501.79" y="356.62" display="inline" fill="#B376B4" width="50.5" height="24.26"/>
	<text transform="matrix(1 0 0 1 510.5039 397.9672)" display="inline" font-family="'SourceSansPro-Regular'" font-size="12px">Venice</text>
	<text transform="matrix(1 0 0 1 439.9099 397.9672)" display="inline" font-family="'SourceSansPro-Regular'" font-size="12px">Turin</text>
	<text transform="matrix(1 0 0 1 364.7314 397.9672)" display="inline" font-family="'SourceSansPro-Regular'" font-size="12px">Rome</text>
	<text transform="matrix(1 0 0 1 288.3051 397.9672)" display="inline" font-family="'SourceSansPro-Regular'" font-size="12px">Naples</text>
	<text transform="matrix(1 0 0 1 218.0768 397.9672)" display="inline" font-family="'SourceSansPro-Regular'" font-size="12px">Milan</text>
	<text transform="matrix(1 0 0 1 141.7044 397.9672)" display="inline" font-family="'SourceSansPro-Regular'" font-size="12px">Genoa</text>
	<text transform="matrix(1 0 0 1 62.3799 397.9672)" display="inline" font-family="'SourceSansPro-Regular'" font-size="12px">Florence</text>
	
		<line display="inline" fill="none" stroke="#6D6E71" stroke-width="0.25" stroke-miterlimit="10" x1="20" y1="381" x2="560" y2="381"/>
	
		<line display="inline" fill="none" stroke="#6D6E71" stroke-width="0.25" stroke-miterlimit="10" x1="20" y1="308" x2="560" y2="308"/>
	
		<line display="inline" fill="none" stroke="#6D6E71" stroke-width="0.25" stroke-miterlimit="10" x1="20" y1="235" x2="560" y2="235"/>
	
		<line display="inline" fill="none" stroke="#6D6E71" stroke-width="0.25" stroke-miterlimit="10" x1="20" y1="163" x2="560" y2="163"/>
	
		<line display="inline" fill="none" stroke="#6D6E71" stroke-width="0.25" stroke-miterlimit="10" x1="20" y1="90" x2="560" y2="90"/>
	
		<line display="inline" fill="none" stroke="#6D6E71" stroke-width="0.25" stroke-miterlimit="10" x1="20" y1="17" x2="560" y2="17"/>
	<text transform="matrix(1 0 0 1 265.8698 415.6846)" display="inline" font-family="'SourceSansPro-Semibold'" font-size="12px">Place</text>
	
		<text transform="matrix(6.123234e-17 -1 1 6.123234e-17 14.3887 268.7031)" display="inline" font-family="'SourceSansPro-Semibold'" font-size="12px">Median Days of Dated Trips</text>
</g>
</svg>
