<?xml version="1.0" encoding="utf-8"?>
<!-- Generator: Adobe Illustrator 23.0.2, SVG Export Plug-In . SVG Version: 6.00 Build 0)  -->
<svg version="1.1" xmlns="http://www.w3.org/2000/svg" xmlns:xlink="http://www.w3.org/1999/xlink" x="0px" y="0px" width="540px"
	 height="275px" viewBox="0 0 540 275" enable-background="new 0 0 540 275" xml:space="preserve">
<g id="Layer_1" display="none">
	<line display="inline" fill="none" stroke="#333333" stroke-miterlimit="10" x1="-5.5" y1="264.5" x2="429.5" y2="264.5"/>
	<line display="inline" fill="none" stroke="#B7B7B7" stroke-miterlimit="10" x1="-5.5" y1="223.5" x2="429.5" y2="223.5"/>
	<line display="inline" fill="none" stroke="#B7B7B7" stroke-miterlimit="10" x1="-5.5" y1="182.5" x2="429.5" y2="182.5"/>
	<line display="inline" fill="none" stroke="#B7B7B7" stroke-miterlimit="10" x1="-5.5" y1="142.5" x2="429.5" y2="142.5"/>
	<line display="inline" fill="none" stroke="#B7B7B7" stroke-miterlimit="10" x1="-5.5" y1="101.5" x2="429.5" y2="101.5"/>
	<line display="inline" fill="none" stroke="#B7B7B7" stroke-miterlimit="10" x1="-5.5" y1="60.5" x2="429.5" y2="60.5"/>
	<path display="inline" opacity="0" d="M37,264L37,264v-26c0-1.1-0.9-2-2-2H12c-1.1,0-2,0.9-2,2v26H37z M37,264L37,264H10v-26
		c0-1.1,0.9-2,2-2h23c1.1,0,2,0.9,2,2V264"/>
	<path display="inline" fill="#6D818E" d="M37,264H10v-26c0-1.1,0.9-2,2-2h23c1.1,0,2,0.9,2,2V264z"/>
	<path display="inline" opacity="0" d="M79,264L79,264v-58c0-1.1-0.9-2-2-2H54c-1.1,0-2,0.9-2,2v58H79z M79,264L79,264H52v-58
		c0-1.1,0.9-2,2-2h23c1.1,0,2,0.9,2,2V264"/>
	<path display="inline" fill="#6D818E" d="M79,264H52v-58c0-1.1,0.9-2,2-2h23c1.1,0,2,0.9,2,2V264z"/>
	<path display="inline" opacity="0" d="M121,264L121,264v-38c0-1.1-0.9-2-2-2H96c-1.1,0-2,0.9-2,2v38H121z M121,264L121,264H94v-38
		c0-1.1,0.9-2,2-2h23c1.1,0,2,0.9,2,2V264"/>
	<path display="inline" fill="#6D818E" d="M121,264H94v-38c0-1.1,0.9-2,2-2h23c1.1,0,2,0.9,2,2V264z"/>
	<path display="inline" opacity="0" d="M163,264L163,264v-98c0-1.1-0.9-2-2-2h-23c-1.1,0-2,0.9-2,2v98H163z M163,264L163,264h-27
		v-98c0-1.1,0.9-2,2-2h23c1.1,0,2,0.9,2,2V264"/>
	<path display="inline" fill="#6D818E" d="M163,264h-27v-98c0-1.1,0.9-2,2-2h23c1.1,0,2,0.9,2,2V264z"/>
	<path display="inline" opacity="0" d="M205,264L205,264v-38c0-1.1-0.9-2-2-2h-23c-1.1,0-2,0.9-2,2v38H205z M205,264L205,264h-27
		v-38c0-1.1,0.9-2,2-2h23c1.1,0,2,0.9,2,2V264"/>
	<path display="inline" fill="#6D818E" d="M205,264h-27v-38c0-1.1,0.9-2,2-2h23c1.1,0,2,0.9,2,2V264z"/>
	<path display="inline" opacity="0" d="M247,264L247,264v-72c0-1.1-0.9-2-2-2h-23c-1.1,0-2,0.9-2,2v72H247z M247,264L247,264h-27
		v-72c0-1.1,0.9-2,2-2h23c1.1,0,2,0.9,2,2V264"/>
	<path display="inline" fill="#6D818E" d="M247,264h-27v-72c0-1.1,0.9-2,2-2h23c1.1,0,2,0.9,2,2V264z"/>
	<path display="inline" opacity="0" d="M289,264L289,264V66c0-1.1-0.9-2-2-2h-23c-1.1,0-2,0.9-2,2v198H289z M289,264L289,264h-27V66
		c0-1.1,0.9-2,2-2h23c1.1,0,2,0.9,2,2V264"/>
	<path display="inline" fill="#6D818E" d="M289,264h-27V66c0-1.1,0.9-2,2-2h23c1.1,0,2,0.9,2,2V264z"/>
	<path display="inline" opacity="0" d="M331,264L331,264v-98c0-1.1-0.9-2-2-2h-23c-1.1,0-2,0.9-2,2v98H331z M331,264L331,264h-27
		v-98c0-1.1,0.9-2,2-2h23c1.1,0,2,0.9,2,2V264"/>
	<path display="inline" fill="#6D818E" d="M331,264h-27v-98c0-1.1,0.9-2,2-2h23c1.1,0,2,0.9,2,2V264z"/>
	<path display="inline" opacity="0" d="M373,264L373,264V152c0-1.1-0.9-2-2-2h-23c-1.1,0-2,0.9-2,2v112H373z M373,264L373,264h-27
		V152c0-1.1,0.9-2,2-2h23c1.1,0,2,0.9,2,2V264"/>
	<path display="inline" fill="#6D818E" d="M373,264h-27V152c0-1.1,0.9-2,2-2h23c1.1,0,2,0.9,2,2V264z"/>
	<path display="inline" opacity="0" d="M415,264L415,264v-68c0-1.1-0.9-2-2-2h-23c-1.1,0-2,0.9-2,2v68H415z M415,264L415,264h-27
		v-68c0-1.1,0.9-2,2-2h23c1.1,0,2,0.9,2,2V264"/>
	<path display="inline" fill="#6D818E" d="M415,264h-27v-68c0-1.1,0.9-2,2-2h23c1.1,0,2,0.9,2,2V264z"/>
	
		<text transform="matrix(1 0 0 1 138.582 347.4498)" display="inline" fill="#424242" font-family="'HelveticaNeue'" font-size="12px">Decade of Travel Start Date</text>
	
		<text transform="matrix(0 -1 1 0 -53.4502 260.6831)" display="inline" fill="#424242" font-family="'HelveticaNeue'" font-size="12px">Number of Unique Travelers</text>
	
		<text transform="matrix(1 0 0 1 -18.4502 268.9276)" display="inline" fill="#757575" font-family="'HelveticaNeue'" font-size="12px">0</text>
	
		<text transform="matrix(1 0 0 1 -25.4502 228.125)" display="inline" fill="#757575" font-family="'HelveticaNeue'" font-size="12px">50</text>
	
		<text transform="matrix(1 0 0 1 -32.4502 187.323)" display="inline" fill="#757575" font-family="'HelveticaNeue'" font-size="12px">100</text>
	
		<text transform="matrix(1 0 0 1 -32.4502 146.5214)" display="inline" fill="#757575" font-family="'HelveticaNeue'" font-size="12px">150</text>
	
		<text transform="matrix(1 0 0 1 -32.4502 105.7189)" display="inline" fill="#757575" font-family="'HelveticaNeue'" font-size="12px">200</text>
	
		<text transform="matrix(1 0 0 1 -32.4502 64.9163)" display="inline" fill="#757575" font-family="'HelveticaNeue'" font-size="12px">250</text>
	
		<text transform="matrix(0.7071 -0.7071 0.7071 0.7071 -10.2575 320.6326)" display="inline" fill="#757575" font-family="'HelveticaNeue'" font-size="12px">1701-1710</text>
	
		<text transform="matrix(0.7071 -0.7071 0.7071 0.7071 31.7787 320.6317)" display="inline" fill="#757575" font-family="'HelveticaNeue'" font-size="12px">1711-1720</text>
	
		<text transform="matrix(0.7071 -0.7071 0.7071 0.7071 73.8139 320.6319)" display="inline" fill="#757575" font-family="'HelveticaNeue'" font-size="12px">1721-1730</text>
	
		<text transform="matrix(0.7071 -0.7071 0.7071 0.7071 115.8494 320.632)" display="inline" fill="#757575" font-family="'HelveticaNeue'" font-size="12px">1731-1740</text>
	
		<text transform="matrix(0.7071 -0.7071 0.7071 0.7071 157.8847 320.6312)" display="inline" fill="#757575" font-family="'HelveticaNeue'" font-size="12px">1741-1750</text>
	
		<text transform="matrix(0.7071 -0.7071 0.7071 0.7071 199.9199 320.6314)" display="inline" fill="#757575" font-family="'HelveticaNeue'" font-size="12px">1751-1760</text>
	
		<text transform="matrix(0.7071 -0.7071 0.7071 0.7071 241.9558 320.6312)" display="inline" fill="#757575" font-family="'HelveticaNeue'" font-size="12px">1761-1770</text>
	
		<text transform="matrix(0.7071 -0.7071 0.7071 0.7071 283.991 320.6313)" display="inline" fill="#757575" font-family="'HelveticaNeue'" font-size="12px">1771-1780</text>
	
		<text transform="matrix(0.7071 -0.7071 0.7071 0.7071 326.0263 320.6305)" display="inline" fill="#757575" font-family="'HelveticaNeue'" font-size="12px">1781-1790</text>
	
		<text transform="matrix(0.7071 -0.7071 0.7071 0.7071 368.0615 320.6307)" display="inline" fill="#757575" font-family="'HelveticaNeue'" font-size="12px">1791-1800</text>
	
		<text transform="matrix(1 0 0 1 43.4208 35.4676)" display="inline" fill="#757575" font-family="'HelveticaNeue'" font-size="20px">Number of Travelers Recorded in Turin</text>
	<polygon display="inline" fill="#6D818E" points="-261.6,316.88 -704.4,316.88 -704.4,159.49 -655.2,95.93 -606,51.21 
		-556.8,22.71 -507.6,170.45 -458.4,98.78 -409.2,-96.31 -360,-100.04 -310.8,-93.68 -261.6,-71.54 	"/>
</g>
<g id="Layer_2">
	<g>
		<polygon fill="#6D818E" points="483.16,264 16.7,264 16.7,235.58 68.53,203.91 120.36,223.4 172.19,164.12 224.02,223.4 
			275.85,190.11 327.67,65.06 379.5,164.12 431.33,150.32 483.16,194.17 		"/>
	</g>
</g>
<g id="Layer_3">
	
		<text transform="matrix(0.7071 -0.7071 0.7071 0.7071 16.8738 52.7369)" fill="#757575" font-family="'SourceSansPro-Regular'" font-size="12px">1701–1710</text>
	
		<text transform="matrix(0.7071 -0.7071 0.7071 0.7071 68.6851 52.7361)" fill="#757575" font-family="'SourceSansPro-Regular'" font-size="12px">1711–1720</text>
	
		<text transform="matrix(0.7071 -0.7071 0.7071 0.7071 120.4942 52.7356)" fill="#757575" font-family="'SourceSansPro-Regular'" font-size="12px">1721–1730</text>
	
		<text transform="matrix(0.7071 -0.7071 0.7071 0.7071 172.3036 52.7357)" fill="#757575" font-family="'SourceSansPro-Regular'" font-size="12px">1731–1740</text>
	
		<text transform="matrix(0.7071 -0.7071 0.7071 0.7071 224.1139 52.7353)" fill="#757575" font-family="'SourceSansPro-Regular'" font-size="12px">1741–1750</text>
	
		<text transform="matrix(0.7071 -0.7071 0.7071 0.7071 275.9237 52.7358)" fill="#757575" font-family="'SourceSansPro-Regular'" font-size="12px">1751–1760</text>
	
		<text transform="matrix(0.7071 -0.7071 0.7071 0.7071 327.7322 52.7343)" fill="#757575" font-family="'SourceSansPro-Regular'" font-size="12px">1761–1770</text>
	
		<text transform="matrix(0.7071 -0.7071 0.7071 0.7071 379.542 52.7346)" fill="#757575" font-family="'SourceSansPro-Regular'" font-size="12px">1771–1780</text>
	
		<text transform="matrix(0.7071 -0.7071 0.7071 0.7071 431.3525 52.7351)" fill="#757575" font-family="'SourceSansPro-Regular'" font-size="12px">1781–1790</text>
	
		<text transform="matrix(0.7071 -0.7071 0.7071 0.7071 483.1618 52.7356)" fill="#757575" font-family="'SourceSansPro-Regular'" font-size="12px">1791–1800</text>
	<line fill="none" stroke="#6D6E71" stroke-width="0.25" stroke-miterlimit="10" x1="68.63" y1="61" x2="68.63" y2="264.42"/>
	<line fill="none" stroke="#6D6E71" stroke-width="0.25" stroke-miterlimit="10" x1="16.87" y1="61" x2="16.87" y2="264.42"/>
	<line fill="none" stroke="#6D6E71" stroke-width="0.25" stroke-miterlimit="10" x1="120.44" y1="61" x2="120.44" y2="264.42"/>
	<line fill="none" stroke="#6D6E71" stroke-width="0.25" stroke-miterlimit="10" x1="172.25" y1="61" x2="172.25" y2="264.42"/>
	<line fill="none" stroke="#6D6E71" stroke-width="0.25" stroke-miterlimit="10" x1="224.06" y1="61" x2="224.06" y2="264.42"/>
	<line fill="none" stroke="#6D6E71" stroke-width="0.25" stroke-miterlimit="10" x1="275.87" y1="61" x2="275.87" y2="264.42"/>
	<line fill="none" stroke="#6D6E71" stroke-width="0.25" stroke-miterlimit="10" x1="327.68" y1="61" x2="327.68" y2="264.42"/>
	<line fill="none" stroke="#6D6E71" stroke-width="0.25" stroke-miterlimit="10" x1="379.49" y1="61" x2="379.49" y2="264.42"/>
	<line fill="none" stroke="#6D6E71" stroke-width="0.25" stroke-miterlimit="10" x1="431.3" y1="61" x2="431.3" y2="264.42"/>
	<line fill="none" stroke="#6D6E71" stroke-width="0.25" stroke-miterlimit="10" x1="483.16" y1="61" x2="483.16" y2="264.42"/>
	<g>
		<text transform="matrix(1 0 0 1 491.3701 245.0542)"><tspan x="0" y="0" fill="#6D6E71" font-family="'SourceSansPro-Regular'" font-size="10px">50</tspan><tspan x="0" y="12" fill="#6D6E71" font-family="'SourceSansPro-Regular'" font-size="10px">travelers</tspan></text>
	</g>
	<g>
		<g>
			
				<line fill="none" stroke="#6D6E71" stroke-width="0.5" stroke-miterlimit="10" x1="488.49" y1="261.41" x2="488.49" y2="226.42"/>
			<g>
				<path fill="#6D6E71" d="M488.49,264.42c0.53-1.42,1.43-3.18,2.38-4.27l-2.38,0.86l-2.38-0.86
					C487.07,261.24,487.97,263.01,488.49,264.42z"/>
			</g>
			<g>
				<path fill="#6D6E71" d="M488.49,223.4c0.53,1.42,1.43,3.18,2.38,4.27l-2.38-0.86l-2.38,0.86
					C487.07,226.58,487.97,224.82,488.49,223.4z"/>
			</g>
		</g>
	</g>
	<line fill="none" stroke="#6D6E71" stroke-width="0.25" stroke-miterlimit="10" x1="0" y1="223.4" x2="540" y2="223.4"/>
	<line fill="none" stroke="#6D6E71" stroke-width="0.25" stroke-miterlimit="10" x1="0" y1="182.8" x2="540" y2="182.8"/>
	<line fill="none" stroke="#6D6E71" stroke-width="0.25" stroke-miterlimit="10" x1="0" y1="142.2" x2="540" y2="142.2"/>
	<line fill="none" stroke="#6D6E71" stroke-width="0.25" stroke-miterlimit="10" x1="0" y1="101.6" x2="540" y2="101.6"/>
	<line fill="none" stroke="#6D6E71" stroke-width="0.25" stroke-miterlimit="10" x1="0" y1="61" x2="540" y2="61"/>
	<line fill="none" stroke="#6D6E71" stroke-width="0.25" stroke-miterlimit="10" x1="-0.17" y1="264.42" x2="540" y2="264.42"/>
</g>
</svg>
