<?xml version="1.0" encoding="utf-8"?>
<!-- Generator: Adobe Illustrator 23.0.2, SVG Export Plug-In . SVG Version: 6.00 Build 0)  -->
<svg version="1.1" xmlns="http://www.w3.org/2000/svg" xmlns:xlink="http://www.w3.org/1999/xlink" x="0px" y="0px" width="540px"
	 height="272px" viewBox="0 0 540 272" enable-background="new 0 0 540 272" xml:space="preserve">
<g id="Layer_2">
	<g>
		<polygon fill="#6DDA8B" points="483.33,260.26 16.87,260.26 16.87,199.02 68.7,178.05 120.52,116.47 172.35,126.62 224.18,195.64 
			276.01,147.59 327.84,106.65 379.67,74.17 431.5,68.76 483.33,103.61 		"/>
	</g>
</g>
<g id="Layer_3">
	
		<text transform="matrix(0.7071 -0.7071 0.7071 0.7071 17.04 48.577)" fill="#757575" font-family="'SourceSansPro-Regular'" font-size="12px">1701–1710</text>
	
		<text transform="matrix(0.7071 -0.7071 0.7071 0.7071 68.8514 48.5762)" fill="#757575" font-family="'SourceSansPro-Regular'" font-size="12px">1711–1720</text>
	
		<text transform="matrix(0.7071 -0.7071 0.7071 0.7071 120.6604 48.5757)" fill="#757575" font-family="'SourceSansPro-Regular'" font-size="12px">1721–1730</text>
	
		<text transform="matrix(0.7071 -0.7071 0.7071 0.7071 172.4698 48.5759)" fill="#757575" font-family="'SourceSansPro-Regular'" font-size="12px">1731–1740</text>
	
		<text transform="matrix(0.7071 -0.7071 0.7071 0.7071 224.2801 48.5759)" fill="#757575" font-family="'SourceSansPro-Regular'" font-size="12px">1741–1750</text>
	
		<text transform="matrix(0.7071 -0.7071 0.7071 0.7071 276.0899 48.5764)" fill="#757575" font-family="'SourceSansPro-Regular'" font-size="12px">1751–1760</text>
	
		<text transform="matrix(0.7071 -0.7071 0.7071 0.7071 327.8985 48.5749)" fill="#757575" font-family="'SourceSansPro-Regular'" font-size="12px">1761–1770</text>
	
		<text transform="matrix(0.7071 -0.7071 0.7071 0.7071 379.7083 48.5747)" fill="#757575" font-family="'SourceSansPro-Regular'" font-size="12px">1771–1780</text>
	
		<text transform="matrix(0.7071 -0.7071 0.7071 0.7071 431.5188 48.5753)" fill="#757575" font-family="'SourceSansPro-Regular'" font-size="12px">1781–1790</text>
	
		<text transform="matrix(0.7071 -0.7071 0.7071 0.7071 483.3281 48.5758)" fill="#757575" font-family="'SourceSansPro-Regular'" font-size="12px">1791–1800</text>
	<line fill="none" stroke="#6D6E71" stroke-width="0.25" stroke-miterlimit="10" x1="68.8" y1="56.84" x2="68.8" y2="260.26"/>
	<line fill="none" stroke="#6D6E71" stroke-width="0.25" stroke-miterlimit="10" x1="17.04" y1="56.84" x2="17.04" y2="260.26"/>
	<line fill="none" stroke="#6D6E71" stroke-width="0.25" stroke-miterlimit="10" x1="120.61" y1="56.84" x2="120.61" y2="260.26"/>
	<line fill="none" stroke="#6D6E71" stroke-width="0.25" stroke-miterlimit="10" x1="172.42" y1="56.84" x2="172.42" y2="260.26"/>
	<line fill="none" stroke="#6D6E71" stroke-width="0.25" stroke-miterlimit="10" x1="224.23" y1="56.84" x2="224.23" y2="260.26"/>
	<line fill="none" stroke="#6D6E71" stroke-width="0.25" stroke-miterlimit="10" x1="276.04" y1="56.84" x2="276.04" y2="260.26"/>
	<line fill="none" stroke="#6D6E71" stroke-width="0.25" stroke-miterlimit="10" x1="327.84" y1="56.84" x2="327.84" y2="260.26"/>
	<line fill="none" stroke="#6D6E71" stroke-width="0.25" stroke-miterlimit="10" x1="379.65" y1="56.84" x2="379.65" y2="260.26"/>
	<line fill="none" stroke="#6D6E71" stroke-width="0.25" stroke-miterlimit="10" x1="431.46" y1="56.84" x2="431.46" y2="260.26"/>
	<line fill="none" stroke="#6D6E71" stroke-width="0.25" stroke-miterlimit="10" x1="483.33" y1="56.84" x2="483.33" y2="260.26"/>
	<g>
		<text transform="matrix(1 0 0 1 492.9759 240.8938)"><tspan x="0" y="0" fill="#6D6E71" font-family="'SourceSansPro-Regular'" font-size="10px">100</tspan><tspan x="0" y="12" fill="#6D6E71" font-family="'SourceSansPro-Regular'" font-size="10px">travelers</tspan></text>
	</g>
	<g>
		<g>
			<line fill="none" stroke="#6D6E71" stroke-width="0.5" stroke-miterlimit="10" x1="490.1" y1="257.25" x2="490.1" y2="229.45"/>
			<g>
				<path fill="#6D6E71" d="M490.1,260.26c0.53-1.42,1.43-3.18,2.38-4.27l-2.38,0.86l-2.38-0.86
					C488.67,257.08,489.57,258.84,490.1,260.26z"/>
			</g>
			<g>
				<path fill="#6D6E71" d="M490.1,226.43c0.53,1.42,1.43,3.18,2.38,4.27l-2.38-0.86l-2.38,0.86
					C488.67,229.61,489.57,227.85,490.1,226.43z"/>
			</g>
		</g>
	</g>
	<line fill="none" stroke="#6D6E71" stroke-width="0.25" stroke-miterlimit="10" x1="0.17" y1="57.25" x2="600" y2="57.25"/>
	<line fill="none" stroke="#6D6E71" stroke-width="0.25" stroke-miterlimit="10" x1="0.17" y1="91.09" x2="600" y2="91.09"/>
	<line fill="none" stroke="#6D6E71" stroke-width="0.25" stroke-miterlimit="10" x1="0.17" y1="124.92" x2="600" y2="124.92"/>
	<line fill="none" stroke="#6D6E71" stroke-width="0.25" stroke-miterlimit="10" x1="0.17" y1="158.76" x2="600" y2="158.76"/>
	<line fill="none" stroke="#6D6E71" stroke-width="0.25" stroke-miterlimit="10" x1="0.17" y1="192.59" x2="600" y2="192.59"/>
	<line fill="none" stroke="#6D6E71" stroke-width="0.25" stroke-miterlimit="10" x1="0.17" y1="226.43" x2="600" y2="226.43"/>
	<line fill="none" stroke="#6D6E71" stroke-width="0.25" stroke-miterlimit="10" x1="0.17" y1="260.26" x2="600" y2="260.26"/>
</g>
</svg>
