<?xml version="1.0" encoding="utf-8"?>
<!-- Generator: Adobe Illustrator 23.0.2, SVG Export Plug-In . SVG Version: 6.00 Build 0)  -->
<svg version="1.1" xmlns="http://www.w3.org/2000/svg" xmlns:xlink="http://www.w3.org/1999/xlink" x="0px" y="0px" width="540px"
	 height="275px" viewBox="0 0 540 275" enable-background="new 0 0 540 275" xml:space="preserve">
<g id="Layer_2">
	<g>
		<g>
			<polygon fill="#FAB876" points="483.33,263.4 16.81,263.4 16.81,256.64 68.64,245.81 120.48,230.92 172.31,213.33 224.15,227.54 
				275.99,220.1 327.82,178.14 379.66,132.12 431.49,99.64 483.33,67.16 			"/>
		</g>
	</g>
</g>
<g id="Layer_3">
	<line fill="none" stroke="#6D6E71" stroke-width="0.25" stroke-miterlimit="10" x1="0" y1="263.82" x2="540.17" y2="263.82"/>
	
		<text transform="matrix(0.7071 -0.7071 0.7071 0.7071 17.04 52.1302)" fill="#757575" font-family="'SourceSansPro-Regular'" font-size="12px">1701–1710</text>
	
		<text transform="matrix(0.7071 -0.7071 0.7071 0.7071 68.8514 52.1293)" fill="#757575" font-family="'SourceSansPro-Regular'" font-size="12px">1711–1720</text>
	
		<text transform="matrix(0.7071 -0.7071 0.7071 0.7071 120.6604 52.1289)" fill="#757575" font-family="'SourceSansPro-Regular'" font-size="12px">1721–1730</text>
	
		<text transform="matrix(0.7071 -0.7071 0.7071 0.7071 172.4698 52.129)" fill="#757575" font-family="'SourceSansPro-Regular'" font-size="12px">1731–1740</text>
	
		<text transform="matrix(0.7071 -0.7071 0.7071 0.7071 224.2801 52.1286)" fill="#757575" font-family="'SourceSansPro-Regular'" font-size="12px">1741–1750</text>
	
		<text transform="matrix(0.7071 -0.7071 0.7071 0.7071 276.0899 52.1291)" fill="#757575" font-family="'SourceSansPro-Regular'" font-size="12px">1751–1760</text>
	
		<text transform="matrix(0.7071 -0.7071 0.7071 0.7071 327.8985 52.1276)" fill="#757575" font-family="'SourceSansPro-Regular'" font-size="12px">1761–1770</text>
	
		<text transform="matrix(0.7071 -0.7071 0.7071 0.7071 379.7083 52.1274)" fill="#757575" font-family="'SourceSansPro-Regular'" font-size="12px">1771–1780</text>
	
		<text transform="matrix(0.7071 -0.7071 0.7071 0.7071 431.5188 52.1279)" fill="#757575" font-family="'SourceSansPro-Regular'" font-size="12px">1781–1790</text>
	
		<text transform="matrix(0.7071 -0.7071 0.7071 0.7071 483.3281 52.1284)" fill="#757575" font-family="'SourceSansPro-Regular'" font-size="12px">1791–1800</text>
	<line fill="none" stroke="#6D6E71" stroke-width="0.25" stroke-miterlimit="10" x1="68.8" y1="60.39" x2="68.8" y2="263.82"/>
	<line fill="none" stroke="#6D6E71" stroke-width="0.25" stroke-miterlimit="10" x1="17.04" y1="60.39" x2="17.04" y2="263.82"/>
	<line fill="none" stroke="#6D6E71" stroke-width="0.25" stroke-miterlimit="10" x1="120.61" y1="60.39" x2="120.61" y2="263.82"/>
	<line fill="none" stroke="#6D6E71" stroke-width="0.25" stroke-miterlimit="10" x1="172.42" y1="60.39" x2="172.42" y2="263.82"/>
	<line fill="none" stroke="#6D6E71" stroke-width="0.25" stroke-miterlimit="10" x1="224.23" y1="60.39" x2="224.23" y2="263.82"/>
	<line fill="none" stroke="#6D6E71" stroke-width="0.25" stroke-miterlimit="10" x1="276.04" y1="60.39" x2="276.04" y2="263.82"/>
	<line fill="none" stroke="#6D6E71" stroke-width="0.25" stroke-miterlimit="10" x1="327.84" y1="60.39" x2="327.84" y2="263.82"/>
	<line fill="none" stroke="#6D6E71" stroke-width="0.25" stroke-miterlimit="10" x1="379.65" y1="60.39" x2="379.65" y2="263.82"/>
	<line fill="none" stroke="#6D6E71" stroke-width="0.25" stroke-miterlimit="10" x1="431.46" y1="60.39" x2="431.46" y2="263.82"/>
	<line fill="none" stroke="#6D6E71" stroke-width="0.25" stroke-miterlimit="10" x1="483.33" y1="60.39" x2="483.33" y2="263.82"/>
	<g>
		<text transform="matrix(1 0 0 1 491.5364 244.447)"><tspan x="0" y="0" fill="#6D6E71" font-family="'SourceSansPro-Regular'" font-size="10px">50</tspan><tspan x="0" y="12" fill="#6D6E71" font-family="'SourceSansPro-Regular'" font-size="10px">travelers</tspan></text>
	</g>
	<g>
		<g>
			<line fill="none" stroke="#6D6E71" stroke-width="0.5" stroke-miterlimit="10" x1="488.66" y1="260.8" x2="488.66" y2="232.59"/>
			<g>
				<path fill="#6D6E71" d="M488.66,263.82c0.53-1.42,1.43-3.18,2.38-4.27l-2.38,0.86l-2.38-0.86
					C487.23,260.64,488.13,262.4,488.66,263.82z"/>
			</g>
			<g>
				<path fill="#6D6E71" d="M488.66,229.57c0.53,1.42,1.43,3.18,2.38,4.27l-2.38-0.86l-2.38,0.86
					C487.23,232.75,488.13,230.99,488.66,229.57z"/>
			</g>
		</g>
	</g>
	<line fill="none" stroke="#6D6E71" stroke-width="0.25" stroke-miterlimit="10" x1="0.17" y1="60.39" x2="540.17" y2="60.39"/>
	<line fill="none" stroke="#6D6E71" stroke-width="0.25" stroke-miterlimit="10" x1="0.17" y1="229.57" x2="540" y2="229.57"/>
	<line fill="none" stroke="#6D6E71" stroke-width="0.25" stroke-miterlimit="10" x1="0.17" y1="195.73" x2="540" y2="195.73"/>
	<line fill="none" stroke="#6D6E71" stroke-width="0.25" stroke-miterlimit="10" x1="0.17" y1="161.9" x2="540" y2="161.9"/>
	<line fill="none" stroke="#6D6E71" stroke-width="0.25" stroke-miterlimit="10" x1="0.17" y1="128.06" x2="540" y2="128.06"/>
	<line fill="none" stroke="#6D6E71" stroke-width="0.25" stroke-miterlimit="10" x1="0.17" y1="94.23" x2="540" y2="94.23"/>
</g>
</svg>
