<?xml version="1.0" encoding="utf-8"?>
<!-- Generator: Adobe Illustrator 23.0.2, SVG Export Plug-In . SVG Version: 6.00 Build 0)  -->
<svg version="1.1" xmlns="http://www.w3.org/2000/svg" xmlns:xlink="http://www.w3.org/1999/xlink" x="0px" y="0px" width="540px"
	 height="570px" viewBox="0 0 540 570" enable-background="new 0 0 540 570" xml:space="preserve">
<g id="Layer_1">
	<g>
		<defs>
			<rect id="SVGID_1_" x="-23.68" y="-397.29" width="600" height="371"/>
		</defs>
		<clipPath id="SVGID_2_">
			<use xlink:href="#SVGID_1_"  overflow="visible"/>
		</clipPath>
		<rect x="-23.68" y="-397.29" clip-path="url(#SVGID_2_)" fill="#FFFFFF" width="600" height="371"/>
		
			<line clip-path="url(#SVGID_2_)" fill="none" stroke="#333333" stroke-miterlimit="10" x1="54.82" y1="-130.79" x2="471.82" y2="-130.79"/>
		
			<line clip-path="url(#SVGID_2_)" fill="none" stroke="#B7B7B7" stroke-miterlimit="10" x1="54.82" y1="-198.79" x2="471.82" y2="-198.79"/>
		
			<line clip-path="url(#SVGID_2_)" fill="none" stroke="#B7B7B7" stroke-miterlimit="10" x1="54.82" y1="-266.79" x2="471.82" y2="-266.79"/>
		
			<line clip-path="url(#SVGID_2_)" fill="none" stroke="#B7B7B7" stroke-miterlimit="10" x1="54.82" y1="-334.79" x2="471.82" y2="-334.79"/>
		<g clip-path="url(#SVGID_2_)">
			<defs>
				<rect id="SVGID_3_" x="54.87" y="-334.88" width="417.06" height="204.01"/>
			</defs>
			<clipPath id="SVGID_4_">
				<use xlink:href="#SVGID_3_"  overflow="visible"/>
			</clipPath>
			<polyline clip-path="url(#SVGID_4_)" fill="none" stroke="#3366CC" stroke-width="2" stroke-miterlimit="10" points="
				75.73,-134.6 117.43,-150.25 159.14,-151.95 200.85,-158.07 242.55,-144.81 284.26,-146.51 325.96,-164.53 367.67,-165.55 
				409.38,-172.35 451.08,-164.53 			"/>
		</g>
		<g clip-path="url(#SVGID_2_)">
			<defs>
				<rect id="SVGID_5_" x="54.87" y="-334.88" width="417.06" height="204.01"/>
			</defs>
			<clipPath id="SVGID_6_">
				<use xlink:href="#SVGID_5_"  overflow="visible"/>
			</clipPath>
			<polyline clip-path="url(#SVGID_6_)" fill="none" stroke="#DC3912" stroke-width="2" stroke-miterlimit="10" points="
				75.73,-158.07 117.43,-162.49 159.14,-185.61 200.85,-221.99 242.55,-177.11 284.26,-194.11 325.96,-268.23 367.67,-276.05 
				409.38,-241.37 451.08,-225.73 			"/>
		</g>
		<g clip-path="url(#SVGID_2_)">
			<defs>
				<rect id="SVGID_7_" x="54.87" y="-334.88" width="417.06" height="204.01"/>
			</defs>
			<clipPath id="SVGID_8_">
				<use xlink:href="#SVGID_7_"  overflow="visible"/>
			</clipPath>
			<polyline clip-path="url(#SVGID_8_)" fill="none" stroke="#FF9900" stroke-width="2" stroke-miterlimit="10" points="
				75.73,-145.49 117.43,-153.31 159.14,-143.11 200.85,-152.97 242.55,-143.45 284.26,-145.49 325.96,-165.55 367.67,-163.51 
				409.38,-160.79 451.08,-153.65 			"/>
		</g>
		<g clip-path="url(#SVGID_2_)">
			<defs>
				<rect id="SVGID_9_" x="54.87" y="-334.88" width="417.06" height="204.01"/>
			</defs>
			<clipPath id="SVGID_10_">
				<use xlink:href="#SVGID_9_"  overflow="visible"/>
			</clipPath>
			<polyline clip-path="url(#SVGID_10_)" fill="none" stroke="#109618" stroke-width="2" stroke-miterlimit="10" points="
				75.73,-158.07 117.43,-155.01 159.14,-155.35 200.85,-177.11 242.55,-156.71 284.26,-155.35 325.96,-166.91 367.67,-163.17 
				409.38,-182.55 451.08,-176.09 			"/>
		</g>
		<g clip-path="url(#SVGID_2_)">
			<defs>
				<rect id="SVGID_11_" x="54.87" y="-334.88" width="417.06" height="204.01"/>
			</defs>
			<clipPath id="SVGID_12_">
				<use xlink:href="#SVGID_11_"  overflow="visible"/>
			</clipPath>
			<polyline clip-path="url(#SVGID_12_)" fill="none" stroke="#990099" stroke-width="2" stroke-miterlimit="10" points="
				75.73,-135.29 117.43,-145.15 159.14,-144.47 200.85,-149.23 242.55,-138.69 284.26,-139.71 325.96,-168.27 367.67,-160.45 
				409.38,-168.27 451.08,-167.25 			"/>
		</g>
		<g clip-path="url(#SVGID_2_)">
			<defs>
				<rect id="SVGID_13_" x="54.87" y="-334.88" width="417.06" height="204.01"/>
			</defs>
			<clipPath id="SVGID_14_">
				<use xlink:href="#SVGID_13_"  overflow="visible"/>
			</clipPath>
			<polyline clip-path="url(#SVGID_14_)" fill="none" stroke="#0099C6" stroke-width="2" stroke-miterlimit="10" points="
				75.73,-138.69 117.43,-164.87 159.14,-185.61 200.85,-163.51 242.55,-160.45 284.26,-183.57 325.96,-237.97 367.67,-259.73 
				409.38,-238.31 451.08,-270.95 			"/>
		</g>
		<g clip-path="url(#SVGID_2_)">
			<defs>
				<rect id="SVGID_15_" x="54.87" y="-334.88" width="417.06" height="204.01"/>
			</defs>
			<clipPath id="SVGID_16_">
				<use xlink:href="#SVGID_15_"  overflow="visible"/>
			</clipPath>
			<polyline clip-path="url(#SVGID_16_)" fill="none" stroke="#DD4477" stroke-width="2" stroke-miterlimit="10" points="
				75.73,-216.55 117.43,-219.95 159.14,-200.57 200.85,-173.37 242.55,-140.05 284.26,-145.49 325.96,-147.87 367.67,-145.49 
				409.38,-149.23 451.08,-173.71 			"/>
		</g>
		<g clip-path="url(#SVGID_2_)">
			<defs>
				<rect id="SVGID_17_" x="54.87" y="-334.88" width="417.06" height="204.01"/>
			</defs>
			<clipPath id="SVGID_18_">
				<use xlink:href="#SVGID_17_"  overflow="visible"/>
			</clipPath>
			<polyline clip-path="url(#SVGID_18_)" fill="none" stroke="#66AA00" stroke-width="2" stroke-miterlimit="10" points="
				75.73,-192.41 117.43,-213.49 159.14,-275.37 200.85,-265.17 242.55,-195.81 284.26,-244.09 325.96,-285.23 367.67,-317.87 
				409.38,-323.31 451.08,-288.29 			"/>
		</g>
		<g clip-path="url(#SVGID_2_)">
			<defs>
				<rect id="SVGID_19_" x="54.87" y="-334.88" width="417.06" height="204.01"/>
			</defs>
			<clipPath id="SVGID_20_">
				<use xlink:href="#SVGID_19_"  overflow="visible"/>
			</clipPath>
			<polyline clip-path="url(#SVGID_20_)" fill="none" stroke="#B82E2E" stroke-width="2" stroke-miterlimit="10" points="
				75.73,-142.77 117.43,-156.03 159.14,-147.87 200.85,-172.69 242.55,-147.87 284.26,-161.81 325.96,-214.17 367.67,-172.69 
				409.38,-178.47 451.08,-160.11 			"/>
		</g>
		<g clip-path="url(#SVGID_2_)">
			<defs>
				<rect id="SVGID_21_" x="54.87" y="-334.88" width="417.06" height="204.01"/>
			</defs>
			<clipPath id="SVGID_22_">
				<use xlink:href="#SVGID_21_"  overflow="visible"/>
			</clipPath>
			<polyline clip-path="url(#SVGID_22_)" fill="none" stroke="#316395" stroke-width="2" stroke-miterlimit="10" points="
				75.73,-171.33 117.43,-182.21 159.14,-173.03 200.85,-196.15 242.55,-159.43 284.26,-181.87 325.96,-233.21 367.67,-244.09 
				409.38,-240.01 451.08,-310.05 			"/>
		</g>
		<g clip-path="url(#SVGID_2_)">
			<defs>
				<rect id="SVGID_23_" x="54.87" y="-334.88" width="417.06" height="204.01"/>
			</defs>
			<clipPath id="SVGID_24_">
				<use xlink:href="#SVGID_23_"  overflow="visible"/>
			</clipPath>
			<circle opacity="0" clip-path="url(#SVGID_24_)" cx="75.73" cy="-134.6" r="3"/>
			<circle opacity="0" clip-path="url(#SVGID_24_)" cx="117.43" cy="-150.25" r="3"/>
			<circle opacity="0" clip-path="url(#SVGID_24_)" cx="159.14" cy="-151.95" r="3"/>
			<circle opacity="0" clip-path="url(#SVGID_24_)" cx="200.85" cy="-158.07" r="3"/>
			<circle opacity="0" clip-path="url(#SVGID_24_)" cx="242.55" cy="-144.81" r="3"/>
			<circle opacity="0" clip-path="url(#SVGID_24_)" cx="284.26" cy="-146.51" r="3"/>
			<circle opacity="0" clip-path="url(#SVGID_24_)" cx="325.96" cy="-164.53" r="3"/>
			<circle opacity="0" clip-path="url(#SVGID_24_)" cx="367.67" cy="-165.55" r="3"/>
			<circle opacity="0" clip-path="url(#SVGID_24_)" cx="409.38" cy="-172.35" r="3"/>
			<circle opacity="0" clip-path="url(#SVGID_24_)" cx="451.08" cy="-164.53" r="3"/>
		</g>
		<g clip-path="url(#SVGID_2_)">
			<defs>
				<rect id="SVGID_25_" x="54.87" y="-334.88" width="417.06" height="204.01"/>
			</defs>
			<clipPath id="SVGID_26_">
				<use xlink:href="#SVGID_25_"  overflow="visible"/>
			</clipPath>
			<circle opacity="0" clip-path="url(#SVGID_26_)" cx="75.73" cy="-158.07" r="3"/>
			<circle opacity="0" clip-path="url(#SVGID_26_)" cx="117.43" cy="-162.49" r="3"/>
			<circle opacity="0" clip-path="url(#SVGID_26_)" cx="159.14" cy="-185.61" r="3"/>
			<circle opacity="0" clip-path="url(#SVGID_26_)" cx="200.85" cy="-221.99" r="3"/>
			<circle opacity="0" clip-path="url(#SVGID_26_)" cx="242.55" cy="-177.11" r="3"/>
			<circle opacity="0" clip-path="url(#SVGID_26_)" cx="284.26" cy="-194.11" r="3"/>
			<circle opacity="0" clip-path="url(#SVGID_26_)" cx="325.96" cy="-268.23" r="3"/>
			<circle opacity="0" clip-path="url(#SVGID_26_)" cx="367.67" cy="-276.05" r="3"/>
			<circle opacity="0" clip-path="url(#SVGID_26_)" cx="409.38" cy="-241.37" r="3"/>
			<circle opacity="0" clip-path="url(#SVGID_26_)" cx="451.08" cy="-225.73" r="3"/>
		</g>
		<g clip-path="url(#SVGID_2_)">
			<defs>
				<rect id="SVGID_27_" x="54.87" y="-334.88" width="417.06" height="204.01"/>
			</defs>
			<clipPath id="SVGID_28_">
				<use xlink:href="#SVGID_27_"  overflow="visible"/>
			</clipPath>
			<circle opacity="0" clip-path="url(#SVGID_28_)" cx="75.73" cy="-145.49" r="3"/>
			<circle opacity="0" clip-path="url(#SVGID_28_)" cx="117.43" cy="-153.31" r="3"/>
			
				<ellipse transform="matrix(0.1602 -0.9871 0.9871 0.1602 274.9053 36.9015)" opacity="0" clip-path="url(#SVGID_28_)" cx="159.14" cy="-143.11" rx="3" ry="3"/>
			<circle opacity="0" clip-path="url(#SVGID_28_)" cx="200.85" cy="-152.97" r="3"/>
			<circle opacity="0" clip-path="url(#SVGID_28_)" cx="242.55" cy="-143.45" r="3"/>
			<circle opacity="0" clip-path="url(#SVGID_28_)" cx="284.26" cy="-145.49" r="3"/>
			<circle opacity="0" clip-path="url(#SVGID_28_)" cx="325.96" cy="-165.55" r="3"/>
			<circle opacity="0" clip-path="url(#SVGID_28_)" cx="367.67" cy="-163.51" r="3"/>
			<circle opacity="0" clip-path="url(#SVGID_28_)" cx="409.38" cy="-160.79" r="3"/>
			<circle opacity="0" clip-path="url(#SVGID_28_)" cx="451.08" cy="-153.65" r="3"/>
		</g>
		<g clip-path="url(#SVGID_2_)">
			<defs>
				<rect id="SVGID_29_" x="54.87" y="-334.88" width="417.06" height="204.01"/>
			</defs>
			<clipPath id="SVGID_30_">
				<use xlink:href="#SVGID_29_"  overflow="visible"/>
			</clipPath>
			<circle opacity="0" clip-path="url(#SVGID_30_)" cx="75.73" cy="-158.07" r="3"/>
			<circle opacity="0" clip-path="url(#SVGID_30_)" cx="117.43" cy="-155.01" r="3"/>
			<circle opacity="0" clip-path="url(#SVGID_30_)" cx="159.14" cy="-155.35" r="3"/>
			<circle opacity="0" clip-path="url(#SVGID_30_)" cx="200.85" cy="-177.11" r="3"/>
			<circle opacity="0" clip-path="url(#SVGID_30_)" cx="242.55" cy="-156.71" r="3"/>
			<circle opacity="0" clip-path="url(#SVGID_30_)" cx="284.26" cy="-155.35" r="3"/>
			<circle opacity="0" clip-path="url(#SVGID_30_)" cx="325.96" cy="-166.91" r="3"/>
			<circle opacity="0" clip-path="url(#SVGID_30_)" cx="367.67" cy="-163.17" r="3"/>
			<circle opacity="0" clip-path="url(#SVGID_30_)" cx="409.38" cy="-182.55" r="3"/>
			<circle opacity="0" clip-path="url(#SVGID_30_)" cx="451.08" cy="-176.09" r="3"/>
		</g>
		<g clip-path="url(#SVGID_2_)">
			<defs>
				<rect id="SVGID_31_" x="54.87" y="-334.88" width="417.06" height="204.01"/>
			</defs>
			<clipPath id="SVGID_32_">
				<use xlink:href="#SVGID_31_"  overflow="visible"/>
			</clipPath>
			<circle opacity="0" clip-path="url(#SVGID_32_)" cx="75.73" cy="-135.29" r="3"/>
			<circle opacity="0" clip-path="url(#SVGID_32_)" cx="117.43" cy="-145.15" r="3"/>
			<circle opacity="0" clip-path="url(#SVGID_32_)" cx="159.14" cy="-144.47" r="3"/>
			<circle opacity="0" clip-path="url(#SVGID_32_)" cx="200.85" cy="-149.23" r="3"/>
			<circle opacity="0" clip-path="url(#SVGID_32_)" cx="242.55" cy="-138.69" r="3"/>
			<circle opacity="0" clip-path="url(#SVGID_32_)" cx="284.26" cy="-139.71" r="3"/>
			<circle opacity="0" clip-path="url(#SVGID_32_)" cx="325.96" cy="-168.27" r="3"/>
			<circle opacity="0" clip-path="url(#SVGID_32_)" cx="367.67" cy="-160.45" r="3"/>
			<circle opacity="0" clip-path="url(#SVGID_32_)" cx="409.38" cy="-168.27" r="3"/>
			<circle opacity="0" clip-path="url(#SVGID_32_)" cx="451.08" cy="-167.25" r="3"/>
		</g>
		<g clip-path="url(#SVGID_2_)">
			<defs>
				<rect id="SVGID_33_" x="54.87" y="-334.88" width="417.06" height="204.01"/>
			</defs>
			<clipPath id="SVGID_34_">
				<use xlink:href="#SVGID_33_"  overflow="visible"/>
			</clipPath>
			<circle opacity="0" clip-path="url(#SVGID_34_)" cx="75.73" cy="-138.69" r="3"/>
			<circle opacity="0" clip-path="url(#SVGID_34_)" cx="117.43" cy="-164.87" r="3"/>
			<circle opacity="0" clip-path="url(#SVGID_34_)" cx="159.14" cy="-185.61" r="3"/>
			<circle opacity="0" clip-path="url(#SVGID_34_)" cx="200.85" cy="-163.51" r="3"/>
			<circle opacity="0" clip-path="url(#SVGID_34_)" cx="242.55" cy="-160.45" r="3"/>
			<circle opacity="0" clip-path="url(#SVGID_34_)" cx="284.26" cy="-183.57" r="3"/>
			<circle opacity="0" clip-path="url(#SVGID_34_)" cx="325.96" cy="-237.97" r="3"/>
			<circle opacity="0" clip-path="url(#SVGID_34_)" cx="367.67" cy="-259.73" r="3"/>
			<circle opacity="0" clip-path="url(#SVGID_34_)" cx="409.38" cy="-238.31" r="3"/>
			<circle opacity="0" clip-path="url(#SVGID_34_)" cx="451.08" cy="-270.95" r="3"/>
		</g>
		<g clip-path="url(#SVGID_2_)">
			<defs>
				<rect id="SVGID_35_" x="54.87" y="-334.88" width="417.06" height="204.01"/>
			</defs>
			<clipPath id="SVGID_36_">
				<use xlink:href="#SVGID_35_"  overflow="visible"/>
			</clipPath>
			<circle opacity="0" clip-path="url(#SVGID_36_)" cx="75.73" cy="-216.55" r="3"/>
			<circle opacity="0" clip-path="url(#SVGID_36_)" cx="117.43" cy="-219.95" r="3"/>
			<circle opacity="0" clip-path="url(#SVGID_36_)" cx="159.14" cy="-200.57" r="3"/>
			<circle opacity="0" clip-path="url(#SVGID_36_)" cx="200.85" cy="-173.37" r="3"/>
			<circle opacity="0" clip-path="url(#SVGID_36_)" cx="242.55" cy="-140.05" r="3"/>
			<circle opacity="0" clip-path="url(#SVGID_36_)" cx="284.26" cy="-145.49" r="3"/>
			<circle opacity="0" clip-path="url(#SVGID_36_)" cx="325.96" cy="-147.87" r="3"/>
			<circle opacity="0" clip-path="url(#SVGID_36_)" cx="367.67" cy="-145.49" r="3"/>
			<circle opacity="0" clip-path="url(#SVGID_36_)" cx="409.38" cy="-149.23" r="3"/>
			<circle opacity="0" clip-path="url(#SVGID_36_)" cx="451.08" cy="-173.71" r="3"/>
		</g>
		<g clip-path="url(#SVGID_2_)">
			<defs>
				<rect id="SVGID_37_" x="54.87" y="-334.88" width="417.06" height="204.01"/>
			</defs>
			<clipPath id="SVGID_38_">
				<use xlink:href="#SVGID_37_"  overflow="visible"/>
			</clipPath>
			<circle opacity="0" clip-path="url(#SVGID_38_)" cx="75.73" cy="-192.41" r="3"/>
			<circle opacity="0" clip-path="url(#SVGID_38_)" cx="117.43" cy="-213.49" r="3"/>
			<circle opacity="0" clip-path="url(#SVGID_38_)" cx="159.14" cy="-275.37" r="3"/>
			<circle opacity="0" clip-path="url(#SVGID_38_)" cx="200.85" cy="-265.17" r="3"/>
			<circle opacity="0" clip-path="url(#SVGID_38_)" cx="242.55" cy="-195.81" r="3"/>
			<circle opacity="0" clip-path="url(#SVGID_38_)" cx="284.26" cy="-244.09" r="3"/>
			
				<ellipse transform="matrix(0.1602 -0.9871 0.9871 0.1602 555.3008 82.2119)" opacity="0" clip-path="url(#SVGID_38_)" cx="325.96" cy="-285.23" rx="3" ry="3"/>
			<circle opacity="0" clip-path="url(#SVGID_38_)" cx="367.67" cy="-317.87" r="3"/>
			<circle opacity="0" clip-path="url(#SVGID_38_)" cx="409.38" cy="-323.31" r="3"/>
			<circle opacity="0" clip-path="url(#SVGID_38_)" cx="451.08" cy="-288.29" r="3"/>
		</g>
		<g clip-path="url(#SVGID_2_)">
			<defs>
				<rect id="SVGID_39_" x="54.87" y="-334.88" width="417.06" height="204.01"/>
			</defs>
			<clipPath id="SVGID_40_">
				<use xlink:href="#SVGID_39_"  overflow="visible"/>
			</clipPath>
			
				<ellipse transform="matrix(0.1602 -0.9871 0.9871 0.1602 204.518 -45.1487)" opacity="0" clip-path="url(#SVGID_40_)" cx="75.73" cy="-142.77" rx="3" ry="3"/>
			<circle opacity="0" clip-path="url(#SVGID_40_)" cx="117.43" cy="-156.03" r="3"/>
			<circle opacity="0" clip-path="url(#SVGID_40_)" cx="159.14" cy="-147.87" r="3"/>
			<circle opacity="0" clip-path="url(#SVGID_40_)" cx="200.85" cy="-172.69" r="3"/>
			<circle opacity="0" clip-path="url(#SVGID_40_)" cx="242.55" cy="-147.87" r="3"/>
			<circle opacity="0" clip-path="url(#SVGID_40_)" cx="284.26" cy="-161.81" r="3"/>
			<circle opacity="0" clip-path="url(#SVGID_40_)" cx="325.96" cy="-214.17" r="3"/>
			<circle opacity="0" clip-path="url(#SVGID_40_)" cx="367.67" cy="-172.69" r="3"/>
			<circle opacity="0" clip-path="url(#SVGID_40_)" cx="409.38" cy="-178.47" r="3"/>
			<circle opacity="0" clip-path="url(#SVGID_40_)" cx="451.08" cy="-160.11" r="3"/>
		</g>
		<g clip-path="url(#SVGID_2_)">
			<defs>
				<rect id="SVGID_41_" x="54.87" y="-334.88" width="417.06" height="204.01"/>
			</defs>
			<clipPath id="SVGID_42_">
				<use xlink:href="#SVGID_41_"  overflow="visible"/>
			</clipPath>
			<circle opacity="0" clip-path="url(#SVGID_42_)" cx="75.73" cy="-171.33" r="3"/>
			<circle opacity="0" clip-path="url(#SVGID_42_)" cx="117.43" cy="-182.21" r="3"/>
			<circle opacity="0" clip-path="url(#SVGID_42_)" cx="159.14" cy="-173.03" r="3"/>
			<circle opacity="0" clip-path="url(#SVGID_42_)" cx="200.85" cy="-196.15" r="3"/>
			<circle opacity="0" clip-path="url(#SVGID_42_)" cx="242.55" cy="-159.43" r="3"/>
			<circle opacity="0" clip-path="url(#SVGID_42_)" cx="284.26" cy="-181.87" r="3"/>
			<circle opacity="0" clip-path="url(#SVGID_42_)" cx="325.96" cy="-233.21" r="3"/>
			<circle opacity="0" clip-path="url(#SVGID_42_)" cx="367.67" cy="-244.09" r="3"/>
			<circle opacity="0" clip-path="url(#SVGID_42_)" cx="409.38" cy="-240.01" r="3"/>
			<circle opacity="0" clip-path="url(#SVGID_42_)" cx="451.08" cy="-310.05" r="3"/>
		</g>
		
			<line clip-path="url(#SVGID_2_)" fill="none" stroke="#3366CC" stroke-width="4" stroke-miterlimit="10" x1="491.77" y1="-334.88" x2="503.77" y2="-334.88"/>
		
			<line clip-path="url(#SVGID_2_)" fill="none" stroke="#DC3912" stroke-width="4" stroke-miterlimit="10" x1="491.77" y1="-309.88" x2="503.77" y2="-309.88"/>
		
			<line clip-path="url(#SVGID_2_)" fill="none" stroke="#FF9900" stroke-width="4" stroke-miterlimit="10" x1="491.77" y1="-284.88" x2="503.77" y2="-284.88"/>
		
			<line clip-path="url(#SVGID_2_)" fill="none" stroke="#109618" stroke-width="4" stroke-miterlimit="10" x1="491.77" y1="-259.88" x2="503.77" y2="-259.88"/>
		
			<line clip-path="url(#SVGID_2_)" fill="none" stroke="#990099" stroke-width="4" stroke-miterlimit="10" x1="491.77" y1="-234.88" x2="503.77" y2="-234.88"/>
		
			<line clip-path="url(#SVGID_2_)" fill="none" stroke="#0099C6" stroke-width="4" stroke-miterlimit="10" x1="491.77" y1="-209.88" x2="503.77" y2="-209.88"/>
		
			<line clip-path="url(#SVGID_2_)" fill="none" stroke="#DD4477" stroke-width="4" stroke-miterlimit="10" x1="491.77" y1="-184.88" x2="503.77" y2="-184.88"/>
		
			<line clip-path="url(#SVGID_2_)" fill="none" stroke="#66AA00" stroke-width="4" stroke-miterlimit="10" x1="491.77" y1="-159.88" x2="503.77" y2="-159.88"/>
		
			<line clip-path="url(#SVGID_2_)" fill="none" stroke="#B82E2E" stroke-width="4" stroke-miterlimit="10" x1="491.77" y1="-134.88" x2="503.77" y2="-134.88"/>
		
			<line clip-path="url(#SVGID_2_)" fill="none" stroke="#316395" stroke-width="4" stroke-miterlimit="10" x1="491.77" y1="-109.88" x2="503.77" y2="-109.88"/>
		<g clip-path="url(#SVGID_2_)">
			<text transform="matrix(1 0 0 1 189.9048 -47.8424)" fill="#424242" font-family="'SourceSansPro-Regular'" font-size="12px">Decade of Travel Start Date</text>
		</g>
		<g clip-path="url(#SVGID_2_)">
			<text transform="matrix(0 -1 1 0 6.8727 -134.6091)" fill="#424242" font-family="'SourceSansPro-Regular'" font-size="12px">Number of Unique Travelers</text>
		</g>
		<g clip-path="url(#SVGID_2_)">
			<text transform="matrix(1 0 0 1 41.8726 -126.3646)" fill="#757575" font-family="'SourceSansPro-Regular'" font-size="12px">0</text>
		</g>
		<g clip-path="url(#SVGID_2_)">
			<text transform="matrix(1 0 0 1 27.8726 -194.3684)" fill="#757575" font-family="'SourceSansPro-Regular'" font-size="12px">200</text>
		</g>
		<g clip-path="url(#SVGID_2_)">
			<text transform="matrix(1 0 0 1 27.8726 -262.3716)" fill="#757575" font-family="'SourceSansPro-Regular'" font-size="12px">400</text>
		</g>
		<g clip-path="url(#SVGID_2_)">
			<text transform="matrix(1 0 0 1 27.8726 -330.3759)" fill="#757575" font-family="'SourceSansPro-Regular'" font-size="12px">600</text>
		</g>
		<g clip-path="url(#SVGID_2_)">
			
				<text transform="matrix(0.7071 -0.7071 0.7071 0.7071 42.5444 -74.6598)" fill="#757575" font-family="'SourceSansPro-Regular'" font-size="12px">1701-1710</text>
		</g>
		<g clip-path="url(#SVGID_2_)">
			
				<text transform="matrix(0.7071 -0.7071 0.7071 0.7071 84.2518 -74.6597)" fill="#757575" font-family="'SourceSansPro-Regular'" font-size="12px">1711-1720</text>
		</g>
		<g clip-path="url(#SVGID_2_)">
			
				<text transform="matrix(0.7071 -0.7071 0.7071 0.7071 125.9585 -74.6606)" fill="#757575" font-family="'SourceSansPro-Regular'" font-size="12px">1721-1730</text>
		</g>
		<g clip-path="url(#SVGID_2_)">
			
				<text transform="matrix(0.7071 -0.7071 0.7071 0.7071 167.6652 -74.6605)" fill="#757575" font-family="'SourceSansPro-Regular'" font-size="12px">1731-1740</text>
		</g>
		<g clip-path="url(#SVGID_2_)">
			
				<text transform="matrix(0.7071 -0.7071 0.7071 0.7071 209.3719 -74.6604)" fill="#757575" font-family="'SourceSansPro-Regular'" font-size="12px">1741-1750</text>
		</g>
		<g clip-path="url(#SVGID_2_)">
			
				<text transform="matrix(0.7071 -0.7071 0.7071 0.7071 251.0782 -74.6609)" fill="#757575" font-family="'SourceSansPro-Regular'" font-size="12px">1751-1760</text>
		</g>
		<g clip-path="url(#SVGID_2_)">
			
				<text transform="matrix(0.7071 -0.7071 0.7071 0.7071 292.785 -74.6612)" fill="#757575" font-family="'SourceSansPro-Regular'" font-size="12px">1761-1770</text>
		</g>
		<g clip-path="url(#SVGID_2_)">
			
				<text transform="matrix(0.7071 -0.7071 0.7071 0.7071 334.4914 -74.6607)" fill="#757575" font-family="'SourceSansPro-Regular'" font-size="12px">1771-1780</text>
		</g>
		<g clip-path="url(#SVGID_2_)">
			
				<text transform="matrix(0.7071 -0.7071 0.7071 0.7071 376.1977 -74.6603)" fill="#757575" font-family="'SourceSansPro-Regular'" font-size="12px">1781-1790</text>
		</g>
		<g clip-path="url(#SVGID_2_)">
			
				<text transform="matrix(0.7071 -0.7071 0.7071 0.7071 417.9048 -74.6615)" fill="#757575" font-family="'SourceSansPro-Regular'" font-size="12px">1791-1800</text>
		</g>
		<g clip-path="url(#SVGID_2_)">
			<text transform="matrix(1 0 0 1 511.6895 -330.4581)" fill="#757575" font-family="'SourceSansPro-Regular'" font-size="12px">Bologna</text>
		</g>
		<g clip-path="url(#SVGID_2_)">
			<text transform="matrix(1 0 0 1 511.6895 -305.4579)" fill="#757575" font-family="'SourceSansPro-Regular'" font-size="12px">Florence</text>
		</g>
		<g clip-path="url(#SVGID_2_)">
			<text transform="matrix(1 0 0 1 511.6895 -280.4576)" fill="#757575" font-family="'SourceSansPro-Regular'" font-size="12px">Genoa</text>
		</g>
		<g clip-path="url(#SVGID_2_)">
			<text transform="matrix(1 0 0 1 511.6895 -255.4574)" fill="#757575" font-family="'SourceSansPro-Regular'" font-size="12px">Leghorn</text>
		</g>
		<g clip-path="url(#SVGID_2_)">
			<text transform="matrix(1 0 0 1 511.6895 -230.4571)" fill="#757575" font-family="'SourceSansPro-Regular'" font-size="12px">Milan</text>
		</g>
		<g clip-path="url(#SVGID_2_)">
			<text transform="matrix(1 0 0 1 511.6895 -205.4564)" fill="#757575" font-family="'SourceSansPro-Regular'" font-size="12px">Naples</text>
		</g>
		<g clip-path="url(#SVGID_2_)">
			<text transform="matrix(1 0 0 1 511.6895 -180.4562)" fill="#757575" font-family="'SourceSansPro-Regular'" font-size="12px">Padua</text>
		</g>
		<g clip-path="url(#SVGID_2_)">
			<text transform="matrix(1 0 0 1 511.6895 -155.4559)" fill="#757575" font-family="'SourceSansPro-Regular'" font-size="12px">Rome</text>
		</g>
		<g clip-path="url(#SVGID_2_)">
			<text transform="matrix(1 0 0 1 511.6895 -130.4557)" fill="#757575" font-family="'SourceSansPro-Regular'" font-size="12px">Turin</text>
		</g>
		<g clip-path="url(#SVGID_2_)">
			<text transform="matrix(1 0 0 1 511.6895 -105.4554)" fill="#757575" font-family="'SourceSansPro-Regular'" font-size="12px">Venice</text>
		</g>
		<g clip-path="url(#SVGID_2_)">
			<text transform="matrix(1 0 0 1 62.2438 -359.8246)" fill="#757575" font-family="'SourceSansPro-Regular'" font-size="20px">Number of Travelers Recorded in Top Ten Cities</text>
		</g>
	</g>
</g>
<g id="Layer_2">
	<polygon fill="#B376B4" points="480.21,1023.64 13.92,1023.64 13.92,865.73 65.73,818.96 117.54,764.23 169.35,764.23 
		221.16,897.07 272.97,814.62 324.78,656.22 376.59,606.08 428.4,642.24 480.21,587.99 	"/>
	<polygon fill="#6DDA8B" points="480.21,1023.64 13.92,1023.64 13.92,894.42 65.73,855.36 117.54,794.13 169.35,810.52 
		221.16,917.32 272.97,850.78 324.78,728.79 376.59,686.36 428.4,719.63 480.21,715.05 	"/>
	<polygon fill="#FAB876" points="480.21,1023.64 13.92,1023.64 13.92,938.06 65.73,913.95 117.54,896.59 169.35,905.75 
		221.16,963.37 272.97,931.06 324.78,838.25 376.59,818.96 428.4,856.09 480.21,826.67 	"/>
	<polygon fill="#AC7879" points="480.21,1023.64 13.92,1023.64 13.92,998.81 65.73,977.11 117.54,946.01 169.35,935.89 
		221.16,969.88 272.97,941.43 324.78,850.3 376.59,829.32 428.4,869.1 480.21,857.05 	"/>
	<polygon fill="#7FB8DA" points="480.21,1023.64 13.92,1023.64 13.92,1004.36 65.73,1001.22 117.54,984.83 169.35,959.03 
		221.16,990.86 272.97,978.8 324.78,926.24 376.59,920.7 428.4,945.29 480.21,956.38 	"/>
	<polygon fill="#B376B4" points="480.21,558.59 13.92,558.59 13.92,375.12 65.73,304.54 117.54,265.74 169.35,222.34 221.16,393.75 
		272.97,307.6 324.78,79.42 376.59,68.68 428.4,77.66 480.21,54.65 	"/>
	<polygon fill="#6D818E" points="480.21,558.59 13.92,558.59 13.92,401.2 65.73,337.63 117.54,292.92 169.35,264.42 221.16,412.16 
		272.97,340.48 324.78,145.4 376.59,141.67 428.4,148.03 480.21,170.17 	"/>
	<polygon fill="#6DDA8B" points="480.21,558.59 13.92,558.59 13.92,408.87 65.73,353.86 117.54,303.88 169.35,291.38 221.16,423.12 
		272.97,360.43 324.78,199.1 376.59,168.63 428.4,178.71 480.21,189.02 	"/>
	<polygon fill="#FAB876" points="480.21,558.59 13.92,558.59 13.92,448.55 65.73,407.12 117.54,397.04 169.35,377.97 221.16,464.99 
		272.97,433.43 324.78,298.62 376.59,289.19 428.4,302.78 480.21,290.51 	"/>
	<polygon fill="#AC7879" points="480.21,558.59 13.92,558.59 13.92,503.79 65.73,464.55 117.54,441.97 169.35,405.37 221.16,470.91 
		272.97,442.85 324.78,309.58 376.59,298.62 428.4,314.62 480.21,318.13 	"/>
	<polygon fill="#DBBC67" points="480.21,558.59 13.92,558.59 13.92,508.83 65.73,486.47 117.54,477.27 169.35,426.41 221.16,489.98 
		272.97,476.83 324.78,378.63 376.59,381.69 428.4,383.89 480.21,408.44 	"/>
	<polygon fill="#78AC86" points="480.21,558.59 13.92,558.59 13.92,511.68 65.73,495.68 117.54,486.03 169.35,438.25 221.16,495.02 
		272.97,482.53 324.78,402.74 376.59,400.76 428.4,408 480.21,431.89 	"/>
	<polygon fill="#D79277" points="480.21,558.59 13.92,558.59 13.92,529.22 65.73,511.24 117.54,501.82 169.35,468.06 221.16,511.68 
		272.97,498.31 324.78,425.97 376.59,421.59 428.4,441.32 480.21,461.04 	"/>
	<polygon fill="#7FB8DA" points="480.21,558.59 13.92,558.59 13.92,538.64 65.73,525.71 117.54,509.71 169.35,482.31 221.16,519.79 
		272.97,507.73 324.78,448.33 376.59,442.63 428.4,460.61 480.21,475.73 	"/>
	<polygon fill="#FDDE88" points="480.21,558.59 13.92,558.59 13.92,556.18 65.73,546.09 117.54,545 169.35,541.05 221.16,549.6 
		272.97,548.51 324.78,536.89 376.59,536.23 428.4,531.85 480.21,536.89 	"/>
	<g>
		
			<rect x="331.32" y="-999.86" transform="matrix(6.123234e-17 -1 1 6.123234e-17 1331.181 -536.5355)" fill="#DBBC67" width="132" height="132"/>
		
			<rect x="-154.68" y="-999.86" transform="matrix(6.123234e-17 -1 1 6.123234e-17 845.1811 -1022.5355)" fill="#AC7879" width="132" height="132"/>
		
			<rect x="-316.68" y="-999.86" transform="matrix(6.123234e-17 -1 1 6.123234e-17 683.1811 -1184.5354)" fill="#B376B4" width="132" height="132"/>
		
			<rect x="-478.68" y="-999.86" transform="matrix(6.123234e-17 -1 1 6.123234e-17 521.1811 -1346.5354)" fill="#6D818E" width="132" height="132"/>
		
			<rect x="-640.68" y="-999.86" transform="matrix(6.123234e-17 -1 1 6.123234e-17 359.1811 -1508.5354)" fill="#7FB8DA" width="132" height="132"/>
		
			<rect x="-802.68" y="-999.86" transform="matrix(6.123234e-17 -1 1 6.123234e-17 197.1811 -1670.5354)" fill="#6DDA8B" width="132" height="132"/>
		
			<rect x="-964.68" y="-999.86" transform="matrix(6.123234e-17 -1 1 6.123234e-17 35.1811 -1832.5354)" fill="#78AC86" width="132" height="132"/>
		
			<rect x="7.32" y="-999.86" transform="matrix(6.123234e-17 -1 1 6.123234e-17 1007.1811 -860.5355)" fill="#D79277" width="132" height="132"/>
		
			<rect x="169.32" y="-999.86" transform="matrix(6.123234e-17 -1 1 6.123234e-17 1169.181 -698.5355)" fill="#FAB876" width="132" height="132"/>
		
			<rect x="169.32" y="-794.59" transform="matrix(6.123234e-17 -1 1 6.123234e-17 963.915 -493.2694)" fill="#FDDE88" width="132" height="132"/>
	</g>
	<rect x="499.08" y="-999.86" fill="#504E2E" width="132" height="132"/>
	<text transform="matrix(1 0 0 1 111.8538 1014.0219)" font-family="'SourceSansPro-Regular'" font-size="12px">Florence</text>
	<text transform="matrix(1 0 0 1 116.3475 961.1118)" font-family="'SourceSansPro-Regular'" font-size="12px">Naples</text>
	<text transform="matrix(1 0 0 1 118.9642 860.5209)" font-family="'SourceSansPro-Regular'" font-size="12px">Rome</text>
	<text transform="matrix(1 0 0 1 117.1458 784.8903)" font-family="'SourceSansPro-Regular'" font-size="12px">Venice</text>
	<text transform="matrix(1 0 0 1 117.4576 923.858)" font-family="'SourceSansPro-Regular'" font-size="12px">Padua</text>
	<text transform="matrix(1 0 0 1 386.0759 111.1517)" fill="#FFFFFF" font-family="'SourceSansPro-Regular'" font-size="12px">Venice</text>
	<text transform="matrix(1 0 0 1 389.2917 159.2455)" fill="#FFFFFF" font-family="'SourceSansPro-Regular'" font-size="12px">Turin</text>
	<text transform="matrix(1 0 0 1 387.9235 243.4505)" fill="#FFFFFF" font-family="'SourceSansPro-Regular'" font-size="12px">Rome</text>
	<text transform="matrix(1 0 0 1 386.4177 303.6176)" fill="#FFFFFF" font-family="'SourceSansPro-Regular'" font-size="12px">Padua</text>
	<text transform="matrix(1 0 0 1 385.3078 350.1294)" fill="#FFFFFF" font-family="'SourceSansPro-Regular'" font-size="12px">Naples</text>
	<text transform="matrix(1 0 0 1 388.8898 396.1372)" fill="#FFFFFF" font-family="'SourceSansPro-Regular'" font-size="12px">Milan</text>
	<text transform="matrix(1 0 0 1 381.8156 418.5488)" fill="#FFFFFF" font-family="'SourceSansPro-Regular'" font-size="12px">Leghorn</text>
	<text transform="matrix(1 0 0 1 386.3278 444.6314)" fill="#FFFFFF" font-family="'SourceSansPro-Regular'" font-size="12px">Genoa</text>
	<text transform="matrix(1 0 0 1 380.8141 503.6096)" fill="#FFFFFF" font-family="'SourceSansPro-Regular'" font-size="12px">Florence</text>
	<text transform="matrix(1 0 0 1 381.6716 551.436)" fill="#FFFFFF" font-family="'SourceSansPro-Regular'" font-size="12px">Bologna</text>
</g>
<g id="test">
	<line fill="none" stroke="#6D6E71" stroke-width="0.25" stroke-miterlimit="10" x1="14.04" y1="54.21" x2="540.18" y2="54.21"/>
	<line fill="none" stroke="#6D6E71" stroke-width="0.25" stroke-miterlimit="10" x1="14.04" y1="54.21" x2="14.04" y2="558.59"/>
	<line fill="none" stroke="#6D6E71" stroke-width="0.25" stroke-miterlimit="10" x1="65.85" y1="54.21" x2="65.85" y2="558.59"/>
	<line fill="none" stroke="#6D6E71" stroke-width="0.25" stroke-miterlimit="10" x1="117.66" y1="54.21" x2="117.66" y2="558.59"/>
	<line fill="none" stroke="#6D6E71" stroke-width="0.25" stroke-miterlimit="10" x1="169.47" y1="54.21" x2="169.47" y2="558.59"/>
	<line fill="none" stroke="#6D6E71" stroke-width="0.25" stroke-miterlimit="10" x1="221.28" y1="54.21" x2="221.28" y2="558.59"/>
	<line fill="none" stroke="#6D6E71" stroke-width="0.25" stroke-miterlimit="10" x1="273.09" y1="54.21" x2="273.09" y2="558.59"/>
	<line fill="none" stroke="#6D6E71" stroke-width="0.25" stroke-miterlimit="10" x1="324.9" y1="54.21" x2="324.9" y2="558.59"/>
	<line fill="none" stroke="#6D6E71" stroke-width="0.25" stroke-miterlimit="10" x1="376.71" y1="54.21" x2="376.71" y2="558.59"/>
	<line fill="none" stroke="#6D6E71" stroke-width="0.25" stroke-miterlimit="10" x1="428.52" y1="54.21" x2="428.52" y2="558.59"/>
	<g>
		<g>
			
				<line fill="none" stroke="#6D6E71" stroke-width="0.5" stroke-miterlimit="10" x1="485.71" y1="555.57" x2="485.71" y2="539.69"/>
			<g>
				<path fill="#6D6E71" d="M485.71,558.59c0.53-1.42,1.43-3.18,2.38-4.27l-2.38,0.86l-2.38-0.86
					C484.28,555.41,485.18,557.17,485.71,558.59z"/>
			</g>
			<g>
				<path fill="#6D6E71" d="M485.71,536.67c0.53,1.42,1.43,3.18,2.38,4.27l-2.38-0.86l-2.38,0.86
					C484.28,539.85,485.18,538.09,485.71,536.67z"/>
			</g>
		</g>
	</g>
	<polyline fill="none" stroke="#6D6E71" stroke-width="0.25" stroke-miterlimit="10" points="540.18,361.31 13.91,361.31 
		13.91,339.39 540.18,339.39 	"/>
	<polyline fill="none" stroke="#6D6E71" stroke-width="0.25" stroke-miterlimit="10" points="540.18,383.23 13.91,383.23 
		13.91,361.31 540.18,361.31 	"/>
	<polyline fill="none" stroke="#6D6E71" stroke-width="0.25" stroke-miterlimit="10" points="540.18,405.15 13.91,405.15 
		13.91,383.23 540.18,383.23 	"/>
	<polyline fill="none" stroke="#6D6E71" stroke-width="0.25" stroke-miterlimit="10" points="540.18,427.07 13.91,427.07 
		13.91,405.15 540.18,405.15 	"/>
	<polyline fill="none" stroke="#6D6E71" stroke-width="0.25" stroke-miterlimit="10" points="540.18,448.99 13.91,448.99 
		13.91,427.07 540.18,427.07 	"/>
	<polyline fill="none" stroke="#6D6E71" stroke-width="0.25" stroke-miterlimit="10" points="540.18,470.91 13.91,470.91 
		13.91,448.99 540.18,448.99 	"/>
	<polyline fill="none" stroke="#6D6E71" stroke-width="0.25" stroke-miterlimit="10" points="540.18,492.83 13.91,492.83 
		13.91,470.91 540.18,470.91 	"/>
	<polyline fill="none" stroke="#6D6E71" stroke-width="0.25" stroke-miterlimit="10" points="540.18,514.75 13.91,514.75 
		13.91,492.83 540.18,492.83 	"/>
	<polyline fill="none" stroke="#6D6E71" stroke-width="0.25" stroke-miterlimit="10" points="540.18,536.67 13.91,536.67 
		13.91,514.75 540.18,514.75 	"/>
	<polyline fill="none" stroke="#6D6E71" stroke-width="0.25" stroke-miterlimit="10" points="540.18,558.59 13.91,558.59 
		13.91,536.67 540.18,536.67 	"/>
	<polyline fill="none" stroke="#6D6E71" stroke-width="0.25" stroke-miterlimit="10" points="540.18,163.92 13.91,163.92 13.91,142 
		540.18,142 	"/>
	<polyline fill="none" stroke="#6D6E71" stroke-width="0.25" stroke-miterlimit="10" points="540.18,185.84 13.91,185.84 
		13.91,163.92 540.18,163.92 	"/>
	<polyline fill="none" stroke="#6D6E71" stroke-width="0.25" stroke-miterlimit="10" points="540.18,207.76 13.91,207.76 
		13.91,185.84 540.18,185.84 	"/>
	<polyline fill="none" stroke="#6D6E71" stroke-width="0.25" stroke-miterlimit="10" points="540.18,229.68 13.91,229.68 
		13.91,207.76 540.18,207.76 	"/>
	<polyline fill="none" stroke="#6D6E71" stroke-width="0.25" stroke-miterlimit="10" points="540.18,251.6 13.91,251.6 
		13.91,229.68 540.18,229.68 	"/>
	<polyline fill="none" stroke="#6D6E71" stroke-width="0.25" stroke-miterlimit="10" points="540.18,273.52 13.91,273.52 
		13.91,251.6 540.18,251.6 	"/>
	<polyline fill="none" stroke="#6D6E71" stroke-width="0.25" stroke-miterlimit="10" points="540.18,295.44 13.91,295.44 
		13.91,273.52 540.18,273.52 	"/>
	<polyline fill="none" stroke="#6D6E71" stroke-width="0.25" stroke-miterlimit="10" points="540.18,317.36 13.91,317.36 
		13.91,295.44 540.18,295.44 	"/>
	<polyline fill="none" stroke="#6D6E71" stroke-width="0.25" stroke-miterlimit="10" points="540.18,339.28 13.91,339.28 
		13.91,317.36 540.18,317.36 	"/>
	<polyline fill="none" stroke="#6D6E71" stroke-width="0.25" stroke-miterlimit="10" points="540.18,76.24 13.91,76.24 13.91,54.32 
		540.18,54.32 	"/>
	<polyline fill="none" stroke="#6D6E71" stroke-width="0.25" stroke-miterlimit="10" points="540.18,98.16 13.91,98.16 13.91,76.24 
		540.18,76.24 	"/>
	<polyline fill="none" stroke="#6D6E71" stroke-width="0.25" stroke-miterlimit="10" points="540.18,120.08 13.91,120.08 
		13.91,98.16 540.18,98.16 	"/>
	<polyline fill="none" stroke="#6D6E71" stroke-width="0.25" stroke-miterlimit="10" points="540.18,142 13.91,142 13.91,120.08 
		540.18,120.08 	"/>
	
		<text transform="matrix(0.7071 -0.7071 0.7071 0.7071 14.0922 48.9002)" fill="#757575" font-family="'SourceSansPro-Regular'" font-size="12px">1701–1710</text>
	
		<text transform="matrix(0.7071 -0.7071 0.7071 0.7071 65.9036 48.8994)" fill="#757575" font-family="'SourceSansPro-Regular'" font-size="12px">1711–1720</text>
	
		<text transform="matrix(0.7071 -0.7071 0.7071 0.7071 117.7127 48.899)" fill="#757575" font-family="'SourceSansPro-Regular'" font-size="12px">1721–1730</text>
	
		<text transform="matrix(0.7071 -0.7071 0.7071 0.7071 169.5221 48.8991)" fill="#757575" font-family="'SourceSansPro-Regular'" font-size="12px">1731–1740</text>
	
		<text transform="matrix(0.7071 -0.7071 0.7071 0.7071 221.3324 48.8986)" fill="#757575" font-family="'SourceSansPro-Regular'" font-size="12px">1741–1750</text>
	
		<text transform="matrix(0.7071 -0.7071 0.7071 0.7071 273.1422 48.8992)" fill="#757575" font-family="'SourceSansPro-Regular'" font-size="12px">1751–1760</text>
	
		<text transform="matrix(0.7071 -0.7071 0.7071 0.7071 324.9507 48.8977)" fill="#757575" font-family="'SourceSansPro-Regular'" font-size="12px">1761–1770</text>
	
		<text transform="matrix(0.7071 -0.7071 0.7071 0.7071 376.7605 48.8975)" fill="#757575" font-family="'SourceSansPro-Regular'" font-size="12px">1771–1780</text>
	
		<text transform="matrix(0.7071 -0.7071 0.7071 0.7071 428.571 48.898)" fill="#757575" font-family="'SourceSansPro-Regular'" font-size="12px">1781–1790</text>
	
		<text transform="matrix(0.7071 -0.7071 0.7071 0.7071 480.3803 48.8985)" fill="#757575" font-family="'SourceSansPro-Regular'" font-size="12px">1791–1800</text>
	<g>
		<text transform="matrix(1 0 0 1 490.5885 545.2175)"><tspan x="0" y="0" fill="#6D6E71" font-family="'SourceSansPro-Regular'" font-size="10px">100</tspan><tspan x="0" y="12" fill="#6D6E71" font-family="'SourceSansPro-Regular'" font-size="10px">travelers</tspan></text>
	</g>
</g>
<g id="Layer_5" display="none">
	<rect x="0.05" y="399.06" display="inline" width="13.86" height="11.72"/>
	<rect x="51.87" y="558.59" display="inline" fill="#6D6E71" width="4.14" height="6.39"/>
	<rect x="60.17" y="558.59" display="inline" fill="#6D6E71" width="4.52" height="11.41"/>
</g>
</svg>
